<?xml version="1.0" encoding="utf-8"?>
<!-- Generator: Adobe Illustrator 27.5.0, SVG Export Plug-In . SVG Version: 6.00 Build 0)  -->
<svg version="1.1" xmlns="http://www.w3.org/2000/svg" xmlns:xlink="http://www.w3.org/1999/xlink" x="0px" y="0px"
	 viewBox="0 0 500 500" style="enable-background:new 0 0 500 500;" xml:space="preserve">
<g id="Background_Simple">
	<g>
		<path style="fill:#92E3A9;" d="M37.051,239.074c4.984,42.209,24.256,91.284,62.747,113.829
			c58.156,34.07,53.288,86.473,166.802,109.254c17.698,3.554,34.494,5.049,50.332,4.754c8.514-0.158,16.755-0.844,24.703-2.014
			c72.145-10.539,120.695-60.687,138.508-121.221c23.44-79.613-23.364-131.735-54.387-163.138
			C394.732,149.134,372.01,51.286,260.594,28.013c-16.988-3.541-34.361-5.348-51.728-4.914
			c-39.641,0.973-82.88,13.99-112.798,41.158c-2.246,2.041-4.431,4.158-6.561,6.339C47.923,113.279,30.253,181.53,37.051,239.074z"
			/>
		<path style="opacity:0.7;fill:#FFFFFF;" d="M37.051,239.074c4.984,42.209,24.256,91.284,62.747,113.829
			c58.156,34.07,53.288,86.473,166.802,109.254c17.698,3.554,34.494,5.049,50.332,4.754c8.514-0.158,16.755-0.844,24.703-2.014
			c72.145-10.539,120.695-60.687,138.508-121.221c23.44-79.613-23.364-131.735-54.387-163.138
			C394.732,149.134,372.01,51.286,260.594,28.013c-16.988-3.541-34.361-5.348-51.728-4.914
			c-39.641,0.973-82.88,13.99-112.798,41.158c-2.246,2.041-4.431,4.158-6.561,6.339C47.923,113.279,30.253,181.53,37.051,239.074z"
			/>
	</g>
</g>
<g id="Graphics">
	<g>
		<g>
			<line style="fill:none;stroke:#263238;stroke-miterlimit:10;" x1="52.619" y1="242.939" x2="52.619" y2="257.449"/>
			<line style="fill:none;stroke:#263238;stroke-miterlimit:10;" x1="59.875" y1="250.194" x2="45.364" y2="250.194"/>
		</g>
		<g>
			<line style="fill:none;stroke:#263238;stroke-miterlimit:10;" x1="382.649" y1="372.48" x2="382.649" y2="381.426"/>
			<line style="fill:none;stroke:#263238;stroke-miterlimit:10;" x1="387.122" y1="376.953" x2="378.176" y2="376.953"/>
		</g>
		<g>
			<line style="fill:none;stroke:#263238;stroke-miterlimit:10;" x1="429.923" y1="69.653" x2="429.923" y2="78.599"/>
			<line style="fill:none;stroke:#263238;stroke-miterlimit:10;" x1="434.396" y1="74.126" x2="425.45" y2="74.126"/>
		</g>
		<g>
			<line style="fill:none;stroke:#263238;stroke-miterlimit:10;" x1="309.642" y1="434.924" x2="309.642" y2="443.87"/>
			<line style="fill:none;stroke:#263238;stroke-miterlimit:10;" x1="314.115" y1="439.397" x2="305.169" y2="439.397"/>
		</g>
		<g>
			<line style="fill:none;stroke:#263238;stroke-miterlimit:10;" x1="424.245" y1="414.976" x2="424.245" y2="436.692"/>
			<line style="fill:none;stroke:#263238;stroke-miterlimit:10;" x1="435.103" y1="425.834" x2="413.387" y2="425.834"/>
		</g>
		<g>
			<line style="fill:none;stroke:#263238;stroke-miterlimit:10;" x1="92.357" y1="102.55" x2="92.357" y2="124.266"/>
			<line style="fill:none;stroke:#263238;stroke-miterlimit:10;" x1="103.215" y1="113.408" x2="81.499" y2="113.408"/>
		</g>
		<path style="fill:none;stroke:#263238;stroke-miterlimit:10;" d="M57.498,174.353c0,2.164-1.754,3.918-3.918,3.918
			c-2.164,0-3.919-1.754-3.919-3.918c0-2.164,1.754-3.919,3.919-3.919C55.744,170.434,57.498,172.189,57.498,174.353z"/>
		<path style="fill:none;stroke:#263238;stroke-miterlimit:10;" d="M444.391,402.022c0,1.498-1.215,2.713-2.713,2.713
			s-2.713-1.215-2.713-2.713c0-1.498,1.215-2.713,2.713-2.713S444.391,400.523,444.391,402.022z"/>
		<path style="fill:none;stroke:#263238;stroke-miterlimit:10;" d="M345.636,420.661c0,1.498-1.215,2.713-2.713,2.713
			s-2.713-1.215-2.713-2.713c0-1.498,1.215-2.713,2.713-2.713S345.636,419.162,345.636,420.661z"/>
		
			<ellipse transform="matrix(0.4068 -0.9135 0.9135 0.4068 -138.1923 167.7379)" style="fill:none;stroke:#263238;stroke-miterlimit:10;" cx="60.067" cy="190.281" rx="8.683" ry="8.683"/>
		<circle style="fill:none;stroke:#263238;stroke-miterlimit:10;" cx="456.954" cy="258.165" r="8.683"/>
		
			<ellipse transform="matrix(0.2289 -0.9734 0.9734 0.2289 59.7489 237.1486)" style="fill:none;stroke:#263238;stroke-miterlimit:10;" cx="179.565" cy="80.86" rx="8.683" ry="8.683"/>
	</g>
</g>
<g id="Padlock">
	<g>
		<g>
			<path style="fill:none;stroke:#263238;stroke-miterlimit:10;" d="M170.66,128.486c-53.694,0-97.372,42.769-97.372,95.33v53.471
				h27.752v-53.471c0-37.579,31.23-68.158,69.621-68.158c38.382,0,69.612,30.579,69.612,68.158v53.471h27.752v-53.471
				C268.023,171.255,224.345,128.486,170.66,128.486z"/>
		</g>
		<path style="fill:none;stroke:#263238;stroke-miterlimit:10;" d="M275.577,422.805V277.287H139.566 M130.346,277.287H62.979
			v175.866h212.598v-19.811 M179.23,370.263l3.888,39.942H153.36l3.888-39.942c-7.241-3.826-12.155-11.326-12.155-19.94
			c0-12.52,10.362-22.66,23.141-22.66c12.788,0,23.15,10.139,23.15,22.66C191.385,358.937,186.462,366.437,179.23,370.263z"/>
		<path style="fill:none;stroke:#263238;stroke-miterlimit:10;" d="M179.23,370.263l3.888,39.942H153.36l3.888-39.942
			c-7.241-3.826-12.155-11.326-12.155-19.94c0-12.52,10.362-22.66,23.141-22.66c12.788,0,23.15,10.139,23.15,22.66
			C191.385,358.937,186.462,366.437,179.23,370.263z"/>
		<path style="fill:none;stroke:#263238;stroke-miterlimit:10;" d="M179.23,370.263l3.888,39.942H153.36l3.888-39.942
			c-7.241-3.826-12.155-11.326-12.155-19.94c0-12.52,10.362-22.66,23.141-22.66c12.788,0,23.15,10.139,23.15,22.66
			C191.385,358.937,186.462,366.437,179.23,370.263z"/>
	</g>
</g>
<g id="Plants">
	<g>
		<path style="fill:#263238;" d="M403.193,34.838c-4.249-0.802-9.808,4.667-11.652,8.058c-0.159,0.293-2.126,5.163-2.048,5.169
			c0.006,0,7.576,0.568,10.745-0.623c2.699-1.016,5.855-3.058,6.721-5.986C407.807,38.59,406.254,35.416,403.193,34.838z"/>
		<path style="fill:#263238;" d="M334.135,106.276c0.273,2.444,0.598,4.862,1.032,7.229c0.209,1.016,0.357,2.067,0.612,3.031
			c0.238,0.977,0.473,1.945,0.706,2.903c0.551,1.964,1.056,3.791,1.616,5.606c0.277,0.92,0.558,1.781,0.838,2.67
			c-0.69-1.409-1.821-3.623-1.947-3.813c-2.126-3.222-8.131-8.198-12.296-7.037c-3.001,0.836-4.279,4.132-3.19,6.914
			c1.112,2.843,4.432,4.61,7.207,5.392c3.061,0.861,9.777-0.141,10.598-0.268c0.475,1.481,0.95,2.929,1.424,4.325h2.685
			c-0.537-1.455-1.079-2.96-1.62-4.522c0.752-0.318,6.561-2.822,8.896-5.1c2.463,1.55,5.265,2.858,5.759,3.085
			c-0.619,2.198-1.201,4.343-1.707,6.361c-0.015,0.06-0.029,0.116-0.044,0.176h2.634c0.395-1.709,0.831-3.493,1.299-5.328
			c0.832,0.155,7.501,1.353,10.582,0.585c2.798-0.698,6.168-2.365,7.364-5.173c1.172-2.749-0.005-6.081-2.98-7.007
			c-4.129-1.285-10.28,3.508-12.501,6.665c-0.143,0.202-1.556,2.781-2.249,4.112c0.311-1.198,0.616-2.389,0.96-3.632
			c0.481-1.79,1.048-3.667,1.588-5.488c0.314-0.935,0.631-1.878,0.952-2.832c0.302-0.969,0.71-1.854,1.065-2.799
			c0.55-1.372,1.186-2.759,1.819-4.145c1.793,0.6,7.087,2.27,9.868,2.012c2.872-0.266,6.455-1.403,8.064-3.998
			c1.574-2.54,0.915-6.012-1.885-7.378c-3.886-1.896-10.692,1.911-13.367,4.694c-0.087,0.091-0.591,0.737-1.182,1.511
			c0.658-1.334,1.31-2.669,2.023-3.998c2.02-3.773,4.194-7.553,6.356-11.351c0.451-0.791,0.889-1.588,1.337-2.381
			c1.507,0.512,7.225,2.373,10.139,2.102c2.871-0.266,6.456-1.403,8.063-3.998c1.574-2.54,0.916-6.012-1.885-7.377
			c-3.885-1.896-10.691,1.91-13.367,4.694c-0.095,0.1-0.696,0.874-1.36,1.745c1.145-2.079,2.262-4.167,3.304-6.273
			c1.829-3.68,3.43-7.406,4.696-11.136c0.529,0.187,7.19,2.502,10.429,2.201c2.871-0.266,6.454-1.403,8.063-3.997
			c1.575-2.54,0.915-6.012-1.884-7.378c-3.886-1.895-10.692,1.911-13.367,4.695c-0.19,0.198-2.342,3.014-3.077,4.045
			c0.015-0.044,0.036-0.089,0.051-0.133c1.293-3.929,2.042-7.839,2.573-11.581c0.534-3.733,0.72-7.294,0.806-10.574
			c0.095-3.282-0.021-6.289-0.145-8.95c-0.078-1.44-0.176-2.757-0.282-3.983c0.014,0.011,0.072,0.056,0.072,0.056
			c0.063,0.047,1.776-4.919,1.849-5.244c0.833-3.77,0.228-11.545-3.504-13.728c-2.688-1.572-5.943-0.196-7.185,2.523
			c-1.267,2.776-0.227,6.389,1.143,8.926c1.404,2.6,6.214,6.386,7.418,7.311c0.084,1.276,0.159,2.641,0.209,4.152
			c0.066,2.657,0.116,5.658-0.049,8.923c-0.042,0.87-0.123,1.804-0.184,2.711c-0.213-1.55-0.536-3.672-0.591-3.876
			c-0.997-3.729-5.117-10.351-9.435-10.568c-3.111-0.157-5.365,2.564-5.214,5.549c0.154,3.048,2.742,5.775,5.129,7.396
			c2.489,1.691,8.654,2.842,10.005,3.079c-0.167,2.006-0.385,4.063-0.738,6.195c-0.6,3.67-1.432,7.549-2.786,11.379
			c-0.075,0.213-0.179,0.424-0.257,0.636c0.027-0.783-0.134-5.096-0.179-5.396c-0.581-3.817-3.949-10.85-8.217-11.541
			c-3.076-0.498-5.615,1.959-5.792,4.942c-0.181,3.047,2.092,6.042,4.285,7.915c2.528,2.158,9.579,4.153,9.845,4.228
			c-1.314,3.569-2.934,7.134-4.784,10.663c-1.338,2.56-2.797,5.097-4.285,7.628c0.011-1.021-0.14-5.029-0.184-5.317
			c-0.582-3.817-3.949-10.85-8.218-11.541c-3.075-0.498-5.615,1.959-5.792,4.942c-0.181,3.047,2.092,6.042,4.285,7.914
			c2.467,2.107,9.215,4.049,9.785,4.211c-0.676,1.149-1.347,2.3-2.034,3.446c-2.243,3.744-4.506,7.488-6.626,11.252
			c-0.735,1.303-1.411,2.616-2.095,3.926c-0.031-1.532-0.14-4.317-0.176-4.555c-0.582-3.817-3.95-10.851-8.218-11.541
			c-3.075-0.498-5.614,1.96-5.792,4.943c-0.181,3.046,2.092,6.042,4.285,7.914c2.203,1.882,7.841,3.637,9.437,4.109
			c-1.12,2.189-2.184,4.387-3.127,6.599c-0.387,0.963-0.843,1.921-1.161,2.866c-0.341,0.946-0.68,1.882-1.013,2.81
			c-0.623,1.943-1.21,3.746-1.744,5.568c-0.276,0.92-0.515,1.793-0.774,2.69c0.201-1.556,0.48-4.027,0.48-4.255
			c0.004-3.86-2.259-11.323-6.373-12.652c-2.965-0.958-5.848,1.086-6.475,4.008c-0.08,0.372-0.121,0.748-0.13,1.126
			c-1.964,2.833-3.091,6.949-3.166,9.513c-0.007,0.247,0.237,3.176,0.393,4.669c-0.401-1.171-0.805-2.332-1.203-3.558
			c-0.586-1.758-1.147-3.637-1.703-5.453c-0.253-0.952-0.509-1.915-0.767-2.886c-0.281-0.976-0.43-1.938-0.656-2.923
			c-0.298-1.448-0.533-2.955-0.77-4.461c1.827-0.488,7.164-2.017,9.34-3.766c2.248-1.806,4.611-4.732,4.521-7.782
			c-0.088-2.988-2.554-5.52-5.643-5.115c-4.286,0.563-7.862,7.492-8.558,11.29c-0.022,0.123-0.086,0.941-0.152,1.911
			c-0.187-1.475-0.38-2.948-0.519-4.45c-0.398-4.261-0.669-8.613-0.96-12.974c-0.06-0.909-0.134-1.816-0.198-2.724
			c1.539-0.404,7.335-2.008,9.616-3.84c2.248-1.806,4.61-4.731,4.52-7.783c-0.088-2.987-2.553-5.52-5.642-5.114
			c-4.288,0.563-7.863,7.491-8.559,11.29c-0.025,0.135-0.099,1.112-0.172,2.206c-0.192-2.367-0.412-4.724-0.704-7.056
			c-0.506-4.078-1.224-8.069-2.227-11.878c0.544-0.138,7.377-1.881,9.912-3.918c2.249-1.806,4.61-4.731,4.521-7.782
			c-0.088-2.988-2.554-5.519-5.642-5.115c-4.288,0.563-7.864,7.493-8.559,11.29c-0.05,0.269-0.291,3.805-0.334,5.071
			c-0.013-0.045-0.019-0.094-0.032-0.139c-1.089-3.99-2.621-7.665-4.243-11.079c-1.614-3.408-3.424-6.481-5.162-9.264
			c-1.731-2.79-3.487-5.234-5.058-7.385c-0.86-1.158-1.668-2.202-2.433-3.167c0.018,0.001,0.092,0.006,0.092,0.006
			c0.079,0.005-1.232-5.082-1.351-5.393c-1.384-3.604-6.178-9.755-10.495-9.517c-3.11,0.171-5.066,3.114-4.602,6.067
			c0.474,3.015,3.337,5.455,5.879,6.815c2.605,1.393,8.706,1.899,10.22,2.004c0.774,1.019,1.589,2.116,2.464,3.348
			c1.521,2.18,3.218,4.655,4.882,7.47c0.445,0.748,0.893,1.572,1.342,2.362c-1.033-1.175-2.473-2.768-2.63-2.906
			c-2.89-2.561-9.978-5.811-13.7-3.61c-2.681,1.585-3.061,5.099-1.288,7.505c1.81,2.457,5.474,3.304,8.357,3.34
			c3.009,0.037,8.785-2.404,10.044-2.952c0.967,1.766,1.92,3.602,2.802,5.575c1.524,3.392,2.97,7.086,3.953,11.027
			c0.055,0.219,0.085,0.453,0.138,0.673c-0.411-0.669-2.924-4.177-3.127-4.402c-2.591-2.863-9.279-6.871-13.221-5.093
			c-2.84,1.282-3.603,4.732-2.105,7.318c1.53,2.641,5.078,3.885,7.94,4.237c3.298,0.405,10.281-1.821,10.543-1.905
			c0.873,3.702,1.489,7.569,1.892,11.533c0.297,2.873,0.479,5.793,0.635,8.727c-0.554-0.858-2.892-4.118-3.087-4.334
			c-2.59-2.863-9.279-6.871-13.22-5.092c-2.84,1.281-3.603,4.732-2.105,7.317c1.529,2.642,5.078,3.886,7.94,4.237
			c3.221,0.396,9.92-1.706,10.484-1.886c0.07,1.332,0.146,2.662,0.205,3.997c0.197,4.36,0.373,8.731,0.68,13.04
			c0.106,1.493,0.266,2.96,0.419,4.43c-0.87-1.26-2.497-3.524-2.659-3.701c-2.591-2.863-9.279-6.872-13.221-5.093
			c-2.839,1.282-3.603,4.732-2.104,7.318c1.53,2.642,5.077,3.885,7.94,4.237C326.872,108.409,332.544,106.762,334.135,106.276z"/>
		<path style="fill:#263238;" d="M323.492,45.098c0.005-0.003,6.632-3.706,8.618-6.448c1.692-2.335,3.197-5.781,2.304-8.699
			c-0.873-2.858-3.92-4.65-6.791-3.443c-3.986,1.675-5.606,9.303-5.275,13.15C322.377,39.989,323.423,45.137,323.492,45.098z"/>
	</g>
	<g>
		<path style="fill:#263238;" d="M139.801,350.621c-4.428-0.836-10.221,4.863-12.143,8.398c-0.166,0.305-2.216,5.38-2.134,5.387
			c0.006,0.001,7.895,0.592,11.198-0.65c2.813-1.058,6.102-3.187,7.004-6.238C144.608,354.532,142.99,351.223,139.801,350.621z"/>
		<path style="fill:#263238;" d="M67.835,425.067c0.285,2.547,0.623,5.067,1.076,7.534c0.217,1.059,0.372,2.154,0.638,3.158
			c0.248,1.018,0.493,2.027,0.736,3.025c0.574,2.047,1.1,3.951,1.685,5.842c0.289,0.958,0.582,1.856,0.874,2.783
			c-0.719-1.468-1.898-3.776-2.029-3.974c-2.216-3.358-8.473-8.543-12.813-7.333c-3.128,0.872-4.459,4.306-3.324,7.205
			c1.159,2.963,4.618,4.804,7.511,5.619c3.189,0.897,10.188-0.147,11.044-0.28c0.495,1.544,0.99,3.053,1.484,4.508h2.798
			c-0.56-1.516-1.124-3.084-1.688-4.712c0.783-0.331,6.837-2.941,9.271-5.315c2.566,1.616,5.487,2.979,6.002,3.215
			c-0.645,2.291-1.251,4.526-1.779,6.629c-0.016,0.063-0.03,0.121-0.046,0.183h2.745c0.411-1.781,0.865-3.64,1.354-5.552
			c0.867,0.162,7.817,1.41,11.027,0.61c2.915-0.727,6.427-2.465,7.674-5.391c1.221-2.865-0.006-6.337-3.105-7.302
			c-4.302-1.339-10.712,3.656-13.028,6.946c-0.149,0.211-1.621,2.898-2.343,4.285c0.324-1.249,0.642-2.49,1-3.785
			c0.501-1.865,1.093-3.821,1.655-5.719c0.328-0.974,0.658-1.957,0.992-2.951c0.315-1.01,0.74-1.932,1.11-2.917
			c0.573-1.429,1.236-2.875,1.895-4.319c1.869,0.626,7.385,2.365,10.283,2.096c2.992-0.277,6.727-1.462,8.403-4.166
			c1.641-2.647,0.954-6.265-1.964-7.688c-4.05-1.976-11.142,1.991-13.929,4.892c-0.091,0.095-0.616,0.768-1.232,1.575
			c0.686-1.39,1.366-2.782,2.108-4.167c2.104-3.932,4.37-7.871,6.624-11.829c0.47-0.824,0.927-1.655,1.393-2.481
			c1.571,0.534,7.53,2.473,10.566,2.191c2.992-0.277,6.728-1.462,8.403-4.166c1.641-2.647,0.954-6.265-1.964-7.688
			c-4.049-1.976-11.141,1.99-13.93,4.892c-0.099,0.104-0.725,0.911-1.417,1.819c1.193-2.167,2.357-4.343,3.443-6.537
			c1.906-3.835,3.575-7.717,4.894-11.605c0.552,0.195,7.493,2.607,10.868,2.294c2.992-0.278,6.726-1.462,8.402-4.166
			c1.641-2.647,0.953-6.265-1.964-7.689c-4.05-1.975-11.142,1.991-13.93,4.892c-0.198,0.206-2.441,3.14-3.207,4.216
			c0.016-0.046,0.038-0.092,0.053-0.139c1.348-4.094,2.128-8.169,2.681-12.069c0.557-3.89,0.75-7.602,0.84-11.02
			c0.099-3.42-0.021-6.554-0.151-9.327c-0.082-1.501-0.184-2.873-0.293-4.151c0.014,0.011,0.076,0.058,0.076,0.058
			c0.066,0.049,1.851-5.126,1.927-5.465c0.868-3.929,0.238-12.031-3.652-14.306c-2.801-1.638-6.194-0.205-7.487,2.629
			c-1.321,2.893-0.237,6.658,1.191,9.302c1.463,2.709,6.475,6.655,7.73,7.619c0.087,1.329,0.166,2.752,0.218,4.326
			c0.069,2.769,0.12,5.896-0.051,9.298c-0.043,0.906-0.128,1.88-0.192,2.825c-0.222-1.615-0.559-3.827-0.615-4.039
			c-1.039-3.887-5.332-10.786-9.833-11.013c-3.242-0.164-5.591,2.672-5.434,5.783c0.161,3.176,2.858,6.018,5.345,7.707
			c2.593,1.762,9.018,2.961,10.426,3.209c-0.174,2.091-0.401,4.234-0.769,6.456c-0.626,3.825-1.492,7.867-2.903,11.858
			c-0.078,0.221-0.187,0.441-0.268,0.663c0.028-0.816-0.139-5.311-0.187-5.623c-0.606-3.977-4.115-11.307-8.563-12.027
			c-3.205-0.519-5.852,2.042-6.036,5.15c-0.189,3.176,2.18,6.296,4.465,8.248c2.634,2.248,9.982,4.328,10.259,4.406
			c-1.369,3.72-3.058,7.434-4.985,11.112c-1.394,2.667-2.915,5.311-4.465,7.949c0.012-1.064-0.146-5.241-0.192-5.541
			c-0.606-3.978-4.116-11.307-8.564-12.026c-3.204-0.519-5.851,2.042-6.036,5.15c-0.189,3.176,2.18,6.297,4.465,8.248
			c2.571,2.195,9.603,4.219,10.197,4.388c-0.705,1.198-1.404,2.397-2.12,3.592c-2.337,3.902-4.696,7.803-6.905,11.725
			c-0.766,1.358-1.47,2.726-2.183,4.091c-0.032-1.596-0.146-4.498-0.184-4.747c-0.606-3.978-4.116-11.307-8.564-12.027
			c-3.205-0.519-5.851,2.042-6.036,5.151c-0.188,3.174,2.18,6.296,4.466,8.247c2.296,1.961,8.171,3.79,9.834,4.282
			c-1.168,2.281-2.276,4.571-3.259,6.877c-0.403,1.003-0.878,2.001-1.21,2.986c-0.355,0.986-0.708,1.962-1.056,2.928
			c-0.649,2.025-1.261,3.904-1.818,5.803c-0.288,0.958-0.537,1.868-0.806,2.803c0.21-1.622,0.5-4.196,0.5-4.434
			c0.004-4.023-2.354-11.8-6.641-13.185c-3.089-0.998-6.094,1.132-6.748,4.177c-0.083,0.387-0.126,0.779-0.135,1.174
			c-2.046,2.952-3.221,7.241-3.299,9.913c-0.007,0.257,0.247,3.31,0.409,4.866c-0.418-1.22-0.838-2.43-1.253-3.708
			c-0.611-1.832-1.196-3.79-1.775-5.683c-0.264-0.993-0.53-1.996-0.8-3.008c-0.293-1.017-0.448-2.02-0.684-3.046
			c-0.31-1.509-0.555-3.08-0.802-4.648c1.904-0.509,7.466-2.102,9.733-3.924c2.343-1.882,4.805-4.931,4.711-8.109
			c-0.092-3.114-2.661-5.752-5.88-5.33c-4.467,0.587-8.193,7.808-8.919,11.766c-0.023,0.128-0.09,0.98-0.159,1.991
			c-0.195-1.537-0.396-3.072-0.54-4.637c-0.414-4.441-0.697-8.976-1.001-13.52c-0.063-0.947-0.14-1.892-0.207-2.839
			c1.604-0.421,7.644-2.092,10.021-4.002c2.343-1.882,4.804-4.93,4.71-8.11c-0.091-3.113-2.66-5.752-5.879-5.329
			c-4.468,0.587-8.194,7.807-8.919,11.765c-0.027,0.141-0.103,1.159-0.179,2.299c-0.2-2.466-0.43-4.923-0.733-7.353
			c-0.527-4.25-1.276-8.408-2.321-12.378c0.567-0.143,7.688-1.96,10.33-4.083c2.343-1.882,4.804-4.931,4.711-8.11
			c-0.092-3.114-2.661-5.752-5.879-5.33c-4.468,0.587-8.195,7.808-8.919,11.766c-0.052,0.28-0.303,3.965-0.348,5.284
			c-0.013-0.047-0.02-0.098-0.033-0.145c-1.135-4.158-2.731-7.987-4.422-11.545c-1.682-3.552-3.568-6.754-5.379-9.654
			c-1.804-2.907-3.633-5.454-5.271-7.696c-0.896-1.207-1.738-2.294-2.535-3.3c0.019,0.001,0.095,0.006,0.095,0.006
			c0.082,0.005-1.284-5.296-1.408-5.621c-1.442-3.756-6.438-10.165-10.937-9.917c-3.241,0.178-5.279,3.245-4.795,6.322
			c0.495,3.142,3.477,5.684,6.126,7.102c2.715,1.452,9.072,1.979,10.65,2.089c0.807,1.061,1.656,2.205,2.568,3.489
			c1.585,2.272,3.353,4.85,5.087,7.784c0.464,0.78,0.931,1.638,1.398,2.462c-1.076-1.224-2.577-2.884-2.741-3.029
			c-3.011-2.669-10.398-6.055-14.277-3.762c-2.794,1.652-3.189,5.314-1.342,7.821c1.886,2.561,5.704,3.443,8.709,3.48
			c3.135,0.038,9.155-2.505,10.466-3.076c1.008,1.84,2.001,3.754,2.919,5.81c1.588,3.535,3.096,7.384,4.119,11.491
			c0.057,0.228,0.089,0.472,0.144,0.701c-0.428-0.697-3.047-4.353-3.258-4.587c-2.7-2.983-9.67-7.16-13.777-5.307
			c-2.959,1.336-3.754,4.931-2.193,7.626c1.594,2.752,5.292,4.049,8.275,4.416c3.437,0.422,10.714-1.897,10.987-1.985
			c0.91,3.858,1.552,7.888,1.972,12.018c0.309,2.993,0.499,6.037,0.661,9.094c-0.577-0.895-3.014-4.292-3.217-4.516
			c-2.699-2.983-9.67-7.16-13.777-5.307c-2.959,1.335-3.754,4.931-2.193,7.626c1.594,2.753,5.292,4.05,8.274,4.416
			c3.357,0.413,10.337-1.778,10.925-1.965c0.073,1.388,0.152,2.774,0.213,4.166c0.205,4.544,0.389,9.099,0.709,13.589
			c0.111,1.556,0.277,3.084,0.436,4.616c-0.907-1.313-2.603-3.672-2.771-3.857c-2.7-2.983-9.67-7.161-13.777-5.308
			c-2.959,1.335-3.754,4.932-2.193,7.626c1.594,2.753,5.291,4.049,8.274,4.416C60.267,427.289,66.178,425.573,67.835,425.067z"/>
		<path style="fill:#263238;" d="M56.744,361.314c0.005-0.003,6.911-3.862,8.98-6.72c1.763-2.434,3.332-6.025,2.401-9.066
			c-0.91-2.979-4.085-4.846-7.077-3.588c-4.154,1.746-5.842,9.695-5.497,13.703C55.582,355.989,56.672,361.354,56.744,361.314z"/>
	</g>
</g>
<g id="Icon">
	<g>
		<path style="fill:#263238;stroke:#263238;stroke-linecap:round;stroke-linejoin:round;stroke-miterlimit:10;" d="M447.118,384.664
			H229.259c-5.183,0-9.385-4.202-9.385-9.385V95.059h236.629V375.28C456.503,380.463,452.301,384.664,447.118,384.664z"/>
		<g>
			<path style="fill:#FFFFFF;stroke:#263238;stroke-miterlimit:10;" d="M442.166,380.332H224.307c-5.183,0-9.385-4.202-9.385-9.385
				V90.726h236.629v280.22C451.551,376.13,447.349,380.332,442.166,380.332z"/>
			<path style="fill:#FFFFFF;stroke:#263238;stroke-miterlimit:10;" d="M442.341,90.726v289.605h0.498
				c4.811,0,8.711-3.9,8.711-8.712V90.726H442.341z"/>
			<rect x="442.341" y="167.833" style="fill:#FFFFFF;stroke:#263238;stroke-miterlimit:10;" width="9.21" height="59.81"/>
			<g>
				<rect x="214.922" y="90.726" style="fill:#263238;stroke:#263238;stroke-miterlimit:10;" width="236.629" height="20.484"/>
				<path style="fill:#FFFFFF;stroke:#263238;stroke-miterlimit:10;" d="M425.626,101.175c0-1.62-1.313-2.933-2.932-2.933
					s-2.933,1.313-2.933,2.933s1.313,2.933,2.933,2.933S425.626,102.795,425.626,101.175z"/>
				<circle style="fill:#FFFFFF;stroke:#263238;stroke-miterlimit:10;" cx="431.91" cy="101.175" r="2.932"/>
				<circle style="fill:#FFFFFF;stroke:#263238;stroke-miterlimit:10;" cx="441.127" cy="101.175" r="2.932"/>
			</g>
		</g>
	</g>
	<g>
		<path style="fill:#CFCFCF;stroke:#FFFFFF;stroke-linecap:round;stroke-linejoin:round;stroke-miterlimit:10;" d="M321.807,319.606
			c-21.65-13.002-38.703-28.733-50.684-46.754c-9.183-13.813-12.018-24.058-12.493-25.972l-0.6-2.42v-92.075l74.277-31.77
			l74.278,31.77v92.076l-0.601,2.419c-0.474,1.912-3.307,12.155-12.493,25.972c-11.981,18.021-29.034,33.752-50.685,46.754
			l-10.5,6.306L321.807,319.606z"/>
		<path style="fill:#FFFFFF;" d="M327.058,310.865c-48.846-29.335-58.158-64.94-58.531-66.441l-0.3-1.209v-84.101l64.08-27.409
			l64.081,27.409v84.101l-0.3,1.209c-0.372,1.501-9.685,37.105-58.531,66.441l-5.25,3.153L327.058,310.865z"/>
		<path style="fill:#92E3A9;" d="M332.308,143.139l-53.884,22.236v76.593c0,0,8.104,32.661,53.884,60.155
			c45.78-27.494,53.884-60.155,53.884-60.155v-76.593L332.308,143.139z"/>
		<g>
			
				<ellipse transform="matrix(0.7071 -0.7071 0.7071 0.7071 -50.2167 295.6431)" style="fill:#FFFFFF;" cx="331.764" cy="208.439" rx="38.154" ry="38.154"/>
			
				<ellipse transform="matrix(0.2424 -0.9702 0.9702 0.2424 62.2744 469.5214)" style="fill:#263238;" cx="331.764" cy="194.887" rx="14.669" ry="14.669"/>
			<path style="fill:#263238;" d="M331.764,246.592c10.19,0,19.439-4.003,26.283-10.511c-1.548-13.146-12.721-23.346-26.283-23.346
				c-13.562,0-24.735,10.2-26.283,23.346C312.325,242.589,321.574,246.592,331.764,246.592z"/>
		</g>
		<path style="opacity:0.19;" d="M342.807,319.606c21.651-13.002,38.704-28.733,50.685-46.754
			c9.186-13.817,12.018-24.06,12.493-25.972l0.601-2.419v-92.076l-74.278-31.77v205.298L342.807,319.606z"/>
	</g>
</g>
<g id="Text_1_">
	<g>
		<path style="fill:#263238;" d="M242.118,362.889v-24.817h6.158c1.491,0,2.681,0.271,3.569,0.812
			c0.889,0.541,1.537,1.323,1.946,2.344c0.408,1.021,0.613,2.256,0.613,3.707c0,1.307-0.23,2.441-0.689,3.4
			c-0.46,0.961-1.139,1.701-2.037,2.222c-0.899,0.52-2.022,0.781-3.37,0.781h-2.726v11.55H242.118z M245.581,348.857h1.593
			c1.001,0,1.787-0.112,2.359-0.337c0.572-0.224,0.98-0.617,1.226-1.179c0.245-0.561,0.368-1.352,0.368-2.374
			c0-1.185-0.087-2.094-0.261-2.727c-0.174-0.633-0.536-1.072-1.087-1.317c-0.552-0.246-1.409-0.368-2.574-0.368h-1.624V348.857z"/>
		<path style="fill:#263238;" d="M256.824,362.889v-24.817h4.994c1.654,0,3.023,0.22,4.106,0.659
			c1.082,0.44,1.884,1.144,2.405,2.114c0.521,0.971,0.781,2.242,0.781,3.814c0,0.96-0.102,1.833-0.306,2.619
			c-0.204,0.787-0.532,1.451-0.98,1.992c-0.45,0.542-1.042,0.935-1.777,1.179l3.523,12.439h-3.339l-3.247-11.642h-2.696v11.642
			H256.824z M260.287,348.765h1.317c0.98,0,1.777-0.123,2.39-0.368c0.613-0.245,1.062-0.664,1.348-1.257
			c0.286-0.592,0.429-1.419,0.429-2.481c0-1.45-0.266-2.497-0.797-3.14c-0.531-0.644-1.583-0.965-3.156-0.965h-1.532V348.765z"/>
		<path style="fill:#263238;" d="M272.909,362.889v-24.817h3.401v24.817H272.909z"/>
		<path style="fill:#263238;" d="M284.642,362.889l-5.545-24.817h3.247l3.922,18.291l3.737-18.291h3.156l-5.484,24.817H284.642z"/>
		<path style="fill:#263238;" d="M293.588,362.889l5.27-24.817h3.34l5.3,24.817h-3.278l-1.134-6.25h-5.055l-1.195,6.25H293.588z
			 M298.49,354.157h4.136l-2.083-11.183L298.49,354.157z"/>
		<path style="fill:#263238;" d="M316.106,363.164c-1.757,0-3.12-0.367-4.09-1.103c-0.97-0.735-1.644-1.725-2.022-2.971
			c-0.378-1.246-0.566-2.634-0.566-4.166v-8.762c0-1.674,0.189-3.136,0.566-4.381c0.378-1.246,1.052-2.211,2.022-2.895
			c0.97-0.684,2.333-1.026,4.09-1.026c1.552,0,2.783,0.286,3.692,0.858c0.909,0.572,1.562,1.39,1.961,2.451
			c0.399,1.062,0.598,2.339,0.598,3.83v1.961h-3.279v-1.747c0-0.919-0.046-1.73-0.138-2.436c-0.092-0.704-0.342-1.251-0.751-1.639
			c-0.409-0.388-1.093-0.582-2.052-0.582c-0.98,0-1.696,0.209-2.145,0.628c-0.45,0.419-0.741,1.011-0.873,1.777
			c-0.133,0.766-0.199,1.66-0.199,2.681v9.835c0,1.246,0.102,2.232,0.306,2.957c0.204,0.725,0.541,1.24,1.011,1.547
			c0.47,0.306,1.103,0.46,1.9,0.46c0.939,0,1.613-0.209,2.022-0.628c0.408-0.418,0.664-0.995,0.766-1.73
			c0.102-0.735,0.153-1.594,0.153-2.574v-1.838h3.279v1.838c0,1.512-0.185,2.845-0.553,3.998c-0.366,1.155-1.001,2.053-1.899,2.697
			C319.006,362.843,317.74,363.164,316.106,363.164z"/>
		<path style="fill:#263238;" d="M329.464,362.889v-8.762l-5.361-16.054h3.216l3.799,11.979l3.737-11.979h3.248l-5.331,16.054v8.762
			H329.464z"/>
		<path style="fill:#263238;" d="M347.417,362.889v-24.817h6.158c1.491,0,2.681,0.271,3.57,0.812s1.536,1.323,1.945,2.344
			c0.408,1.021,0.613,2.256,0.613,3.707c0,1.307-0.23,2.441-0.69,3.4c-0.46,0.961-1.139,1.701-2.037,2.222
			c-0.899,0.52-2.022,0.781-3.37,0.781h-2.727v11.55H347.417z M350.878,348.857h1.594c1,0,1.787-0.112,2.359-0.337
			c0.572-0.224,0.981-0.617,1.226-1.179c0.245-0.561,0.368-1.352,0.368-2.374c0-1.185-0.088-2.094-0.261-2.727
			c-0.173-0.633-0.536-1.072-1.088-1.317c-0.551-0.246-1.409-0.368-2.573-0.368h-1.625V348.857z"/>
		<path style="fill:#263238;" d="M368.464,363.164c-1.675,0-3.013-0.326-4.013-0.98c-1.001-0.654-1.716-1.588-2.145-2.804
			c-0.429-1.215-0.644-2.64-0.644-4.273v-9.406c0-1.633,0.219-3.038,0.659-4.212c0.439-1.175,1.154-2.073,2.145-2.696
			c0.99-0.623,2.322-0.935,3.998-0.935c1.674,0,3.002,0.316,3.983,0.95c0.98,0.633,1.69,1.531,2.129,2.696
			c0.439,1.164,0.658,2.564,0.658,4.197v9.436c0,1.615-0.219,3.023-0.658,4.228c-0.44,1.206-1.149,2.14-2.129,2.804
			C371.466,362.833,370.138,363.164,368.464,363.164z M368.464,360.438c0.919,0,1.613-0.189,2.083-0.567s0.786-0.908,0.95-1.593
			c0.163-0.684,0.245-1.487,0.245-2.406v-10.875c0-0.919-0.082-1.711-0.245-2.375c-0.164-0.664-0.48-1.174-0.95-1.532
			c-0.47-0.356-1.164-0.536-2.083-0.536c-0.919,0-1.619,0.18-2.099,0.536c-0.48,0.358-0.801,0.868-0.965,1.532
			c-0.163,0.664-0.245,1.456-0.245,2.375v10.875c0,0.919,0.082,1.721,0.245,2.406c0.164,0.684,0.485,1.215,0.965,1.593
			C366.845,360.249,367.545,360.438,368.464,360.438z"/>
		<path style="fill:#263238;" d="M378.635,362.889v-24.817h3.462v22.335h6.342v2.482H378.635z"/>
		<path style="fill:#263238;" d="M390.982,362.889v-24.817h3.4v24.817H390.982z"/>
		<path style="fill:#263238;" d="M404.615,363.164c-1.757,0-3.12-0.367-4.09-1.103c-0.97-0.735-1.644-1.725-2.022-2.971
			c-0.378-1.246-0.567-2.634-0.567-4.166v-8.762c0-1.674,0.189-3.136,0.567-4.381c0.378-1.246,1.052-2.211,2.022-2.895
			c0.97-0.684,2.333-1.026,4.09-1.026c1.552,0,2.783,0.286,3.692,0.858c0.908,0.572,1.562,1.39,1.961,2.451
			c0.398,1.062,0.597,2.339,0.597,3.83v1.961h-3.279v-1.747c0-0.919-0.045-1.73-0.138-2.436c-0.092-0.704-0.342-1.251-0.751-1.639
			c-0.409-0.388-1.092-0.582-2.052-0.582c-0.981,0-1.696,0.209-2.145,0.628c-0.45,0.419-0.741,1.011-0.873,1.777
			c-0.133,0.766-0.199,1.66-0.199,2.681v9.835c0,1.246,0.102,2.232,0.306,2.957c0.204,0.725,0.541,1.24,1.011,1.547
			c0.47,0.306,1.103,0.46,1.9,0.46c0.939,0,1.613-0.209,2.022-0.628c0.409-0.418,0.664-0.995,0.766-1.73
			c0.102-0.735,0.153-1.594,0.153-2.574v-1.838h3.279v1.838c0,1.512-0.184,2.845-0.552,3.998c-0.367,1.155-1.001,2.053-1.899,2.697
			C407.515,362.843,406.249,363.164,404.615,363.164z"/>
		<path style="fill:#263238;" d="M417.973,362.889v-8.762l-5.361-16.054h3.216l3.799,11.979l3.738-11.979h3.248l-5.331,16.054v8.762
			H417.973z"/>
	</g>
</g>
<g id="Character">
	<g>
		<g>
			<path style="fill:#FFFFFF;stroke:#263238;stroke-miterlimit:10;" d="M190.357,348.102c0,0-1.241,18.609,1.447,27.913
				c2.688,9.304,19.642,53.552,19.642,53.552s0.413,7.857-0.207,8.684s-3.515,5.376-7.443,7.237
				c-3.928,1.861-12.199,6.616-10.338,7.237c1.861,0.62,18.402-1.241,20.263-0.413c1.861,0.827,10.131-2.481,12.199-3.308
				c2.068-0.827,0-5.996,0-5.996s-4.342-14.68-6.203-26.052c-1.861-11.372-4.755-27.086-6.41-34.943
				c-1.654-7.857-4.755-14.06-4.755-14.06l2.068-19.436L190.357,348.102z"/>
			<path style="fill:#263238;stroke:#263238;stroke-miterlimit:10;" d="M206.484,448.175l-2.129-2.98
				c-0.185,0.102-0.369,0.203-0.559,0.292c-3.928,1.861-12.199,6.616-10.338,7.237c1.861,0.62,18.402-1.241,20.263-0.413
				c1.861,0.827,10.131-2.481,12.199-3.308c2.068-0.827,0-5.996,0-5.996s-0.206-0.697-0.547-1.903
				c-2.544,1.195-5.699,2.885-7.93,4.798C213.1,449.622,206.484,448.175,206.484,448.175z"/>
		</g>
		<g>
			<path style="fill:#FFFFFF;stroke:#263238;stroke-miterlimit:10;" d="M203.488,349.549c0,0,1.654,19.022,4.135,25.639
				c2.481,6.616,2.481,51.691,2.481,55.412c0,3.722-5.996,9.718-5.996,9.718s-10.338,7.65-13.233,8.477
				c-2.895,0.827-5.169,1.861-3.722,3.101c1.447,1.241,15.714,1.241,20.676,1.241c4.962,0,11.372,0.207,11.992-0.827
				c0.62-1.034,1.034-4.135,1.034-4.135s-1.241-11.579-0.827-16.748c0.413-5.169,7.857-36.597,7.237-47.142
				c-0.62-10.545-3.515-19.849-3.722-20.676c-0.207-0.827,1.447-15.094,1.447-15.094L203.488,349.549z"/>
			<path style="fill:#263238;stroke:#263238;stroke-miterlimit:10;" d="M220.856,448.175c0,0-0.053-0.5-0.134-1.329
				c-9.294,0.72-21.37,1.329-21.37,1.329l-1.401-3.503c-2.777,1.879-5.73,3.739-7.076,4.123c-2.895,0.827-5.169,1.861-3.722,3.101
				c1.447,1.241,15.714,1.241,20.676,1.241c4.962,0,11.372,0.207,11.992-0.827C220.442,451.276,220.856,448.175,220.856,448.175z"/>
		</g>
		<path style="fill:#263238;stroke:#263238;stroke-linecap:round;stroke-linejoin:round;stroke-miterlimit:10;" d="M183.048,298.549
			c0,0-1.45,14.909-0.828,21.536c0.621,6.627,2.354,39.475,2.354,39.475s11.727,7.216,22.288,7.837
			c10.561,0.621,26.506-4.97,26.506-4.97s3.52-39.029,1.449-49.383c-2.071-10.354-3.106-15.324-3.106-15.324
			s-27.955-1.449-35.203-3.313c-7.248-1.864-8.956-2.919-8.956-2.919l-2.386-0.274L183.048,298.549z"/>
		<path style="fill:#FFFFFF;stroke:#263238;stroke-linecap:round;stroke-linejoin:round;stroke-miterlimit:10;" d="M187.397,294.686
			c0,0,10.768,5.177,26.713,3.106l-1.035-30.233l7.041-45.764l-11.389-0.414l-12.839,4.556l-7.662,57.982L187.397,294.686z"/>
		<path style="fill:#FFFFFF;stroke:#263238;stroke-linecap:round;stroke-linejoin:round;stroke-miterlimit:10;" d="M197.65,216.887
			c0,0-2.766,12.529-2.278,14.156c0.488,1.627,5.532,10.251,8.949,9.6c3.417-0.651,10.739-12.529,11.715-14.807
			c0.976-2.278-0.976-6.183-1.139-6.997c-0.163-0.813-2.115-9.274-2.115-9.274S204.972,216.236,197.65,216.887z"/>
		<g>
			<path style="fill:#92E3A9;stroke:#263238;stroke-linecap:round;stroke-linejoin:round;stroke-miterlimit:10;" d="
				M198.614,224.469c0,0-2.986,24.447-3.172,33.964c-0.187,9.517-5.598,53.185-5.598,53.185s-0.747,1.306-5.599-0.187
				c-4.852-1.493-7.278-4.852-7.278-4.852s8.398-31.351,8.584-32.844c0.187-1.493-1.493-16.049-1.493-16.049l-16.795,14.556
				c0,0,0.373-7.838,1.866-9.517c1.493-1.68,12.69-22.58,13.623-24.633c0.933-2.053-0.187-8.211,3.172-10.077
				C189.283,226.148,198.614,224.469,198.614,224.469z"/>
			<polyline style="fill:none;stroke:#263238;stroke-linecap:round;stroke-linejoin:round;stroke-miterlimit:10;" points="
				182.319,292.055 189.421,294.422 189.158,296.263 182.845,294.685 			"/>
			<path style="fill:#FFFFFF;stroke:#263238;stroke-linecap:round;stroke-linejoin:round;stroke-miterlimit:10;" d="M194.508,269.07
				c0,0-2.986-28.925-2.613-35.457"/>
		</g>
		<g>
			<path style="fill:#92E3A9;stroke:#263238;stroke-linecap:round;stroke-linejoin:round;stroke-miterlimit:10;" d="
				M215.783,222.976c0,0-10.264,35.084-10.264,43.108c0,8.025,2.052,47.277,2.052,47.277s9.294,2.774,16.572,1.841
				c7.278-0.933,17.02-5.077,17.02-5.077l-9.891-29.485c0,0,15.676-37.696,15.676-40.309c0-2.613,2.053-7.465,0-8.771
				c-2.053-1.306-19.781-7.278-22.207-8.398C222.314,222.043,218.768,220.363,215.783,222.976z"/>
			<polyline style="fill:none;stroke:#263238;stroke-linecap:round;stroke-linejoin:round;stroke-miterlimit:10;" points="
				231.244,295.474 214.11,297.792 215.199,300.209 224.931,299.157 			"/>
			<path style="fill:#92E3A9;stroke:#263238;stroke-linecap:round;stroke-linejoin:round;stroke-miterlimit:10;" d="M225.554,223.5
				c-0.347-0.137-0.629-0.253-0.814-0.338c-2.426-1.12-5.972-2.799-8.957-0.187c0,0-10.264,35.084-10.264,43.108
				c0,1.338,0.115,3.535,0.305,6.262c0.841-2.804,2.736-7.192,6.227-16.153C216.587,244.549,223.206,228.985,225.554,223.5z"/>
		</g>
		<path style="fill:#263238;stroke:#263238;stroke-linecap:round;stroke-linejoin:round;stroke-miterlimit:10;" d="M189.476,175.636
			c0,0-10.211,6.807-10.829,11.758c-0.619,4.951-0.155,7.89-0.155,12.686c0,4.796-2.63,19.802-0.155,25.372
			s6.034,10.52,10.984,11.912c4.951,1.392,8.045,0.155,9.282-1.083c1.238-1.238,2.166-3.558,2.166-3.558s-2.63,0.309-2.63-2.785
			s2.939-12.531,2.939-12.531s-6.652-3.404-7.89-6.652c-1.238-3.249-4.951-20.421-4.641-21.814c0.309-1.392,5.879-4.487,6.033-8.354
			C194.736,176.719,192.261,174.398,189.476,175.636z"/>
		<g>
			<path style="fill:#FFFFFF;stroke:#263238;stroke-linecap:round;stroke-linejoin:round;stroke-miterlimit:10;" d="
				M188.548,182.443c0,0-2.63,5.724-1.857,10.365c0.773,4.641,2.321,12.686,3.094,15.935c0.773,3.249,4.796,6.807,6.807,8.664
				c2.011,1.856,5.569,4.487,8.199,3.868c2.63-0.619,6.498-6.962,6.498-6.962s3.094-3.558,3.868-6.652
				c0.773-3.094-1.857-8.509-3.558-14.233c-1.702-5.724-5.879-10.829-12.841-12.531C191.797,179.194,189.631,181.36,188.548,182.443
				z"/>
			<path style="fill:none;stroke:#263238;stroke-linecap:round;stroke-linejoin:round;stroke-miterlimit:10;" d="M194.427,198.842
				c0,0,2.166,3.558,2.011,4.641c-0.155,1.083-1.238,5.724-0.619,6.034c0.619,0.309,2.785-0.155,2.785-0.155"/>
			<path style="fill:none;stroke:#263238;stroke-linecap:round;stroke-linejoin:round;stroke-miterlimit:10;" d="M198.604,212.61
				c0,0,3.249,0.309,6.034-3.249"/>
			<path style="fill:none;stroke:#263238;stroke-linecap:round;stroke-linejoin:round;stroke-miterlimit:10;" d="M193.344,198.687
				c0,0-2.63-1.083-3.868,1.083"/>
			<path style="fill:none;stroke:#263238;stroke-linecap:round;stroke-linejoin:round;stroke-miterlimit:10;" d="M197.676,198.068
				c0,0,0.464-2.166,4.332-1.083"/>
			<path style="fill:#263238;" d="M201.957,201.014c0.278,0.808,0.111,1.598-0.374,1.765c-0.485,0.167-1.103-0.352-1.382-1.16
				c-0.278-0.808-0.111-1.598,0.374-1.765C201.06,199.687,201.679,200.207,201.957,201.014z"/>
			<path style="fill:#263238;" d="M193.654,202.555c0.278,0.808,0.111,1.598-0.374,1.765c-0.485,0.167-1.103-0.353-1.382-1.16
				c-0.278-0.808-0.111-1.598,0.374-1.765C192.757,201.227,193.375,201.747,193.654,202.555z"/>
		</g>
		<path style="fill:#263238;stroke:#263238;stroke-linecap:round;stroke-linejoin:round;stroke-miterlimit:10;" d="M186.846,181.514
			c0,0,6.188,8.973,12.376,12.995c6.188,4.022,12.222,4.951,12.376,8.664c0.155,3.713-2.785,12.067-0.464,18.101
			c2.321,6.034,6.652,8.2,12.686,6.962c6.034-1.238,8.818-6.807,8.818-6.807s-3.404,2.321-4.486-0.309
			c-1.083-2.63-3.558-6.498-0.464-12.841c3.094-6.343,4.951-9.282-0.774-19.802c-5.724-10.52-12.531-16.554-17.946-18.874
			C203.555,167.281,186.692,170.994,186.846,181.514z"/>
		<polygon style="fill:#FFFFFF;stroke:#263238;stroke-linecap:round;stroke-linejoin:round;stroke-miterlimit:10;" points="
			184.582,267.939 183.859,260.71 181.112,263.457 		"/>
		<path style="fill:#FFFFFF;stroke:#263238;stroke-linecap:round;stroke-linejoin:round;stroke-miterlimit:10;" d="M176.735,250.078
			l2.962,4.02l-2.327,3.597c0,0-0.317,0.423,1.269,2.962c1.587,2.539,3.808,4.76,3.808,4.76s5.062-10.65,5.44-12.572
			c0.378-1.921-8.461-13.179-8.461-13.179S176.417,245.529,176.735,250.078z"/>
		<polygon style="fill:#FFFFFF;stroke:#263238;stroke-linecap:round;stroke-linejoin:round;stroke-miterlimit:10;" points="
			168.254,229.727 183.208,247.501 193.128,248.143 178.945,229.342 		"/>
		<g>
			<path style="fill:#FFFFFF;stroke:#263238;stroke-linecap:round;stroke-linejoin:round;stroke-miterlimit:10;" d="
				M175.925,239.829c0,0-1.87,1.151-1.438,2.157c0.432,1.007,3.596,3.308,5.897,3.596c2.301,0.288,1.166-1.107,1.159-1.848
				C181.534,242.993,175.925,239.829,175.925,239.829z"/>
			<path style="fill:#FFFFFF;stroke:#263238;stroke-linecap:round;stroke-linejoin:round;stroke-miterlimit:10;" d="
				M175.205,243.137c0,0-1.438,1.582-1.007,2.733s5.897,2.733,6.904,2.877c1.007,0.144,2.158-1.151,0.719-2.158
				C180.384,245.582,175.205,243.137,175.205,243.137z"/>
			<path style="fill:#FFFFFF;stroke:#263238;stroke-linecap:round;stroke-linejoin:round;stroke-miterlimit:10;" d="
				M175.349,247.308c0,0-0.432,2.014,0.575,2.733c1.007,0.719,5.67,0.183,6.431-0.124c0.761-0.307-1.253-1.17-1.253-1.17
				L175.349,247.308z"/>
		</g>
		<g>
			<path style="fill:#FFFFFF;stroke:#263238;stroke-linecap:round;stroke-linejoin:round;stroke-miterlimit:10;" d="
				M205.786,256.588l-5.532-5.207c0,0-1.79-6.02-2.603-7.81c-0.814-1.79-1.464-2.278-3.417-4.068
				c-1.952-1.79-3.254-0.976-3.58,0.163c-0.326,1.139-0.326,1.139-0.326,1.139s-9.437-0.488-10.902-1.139
				c-1.464-0.651-3.092-2.115-3.905-1.139c-0.814,0.976,0.325,2.278,1.627,3.092c1.302,0.814,3.092,1.79,4.393,2.115
				c1.302,0.326,2.929,0.651,2.929,0.651l-6.834-0.976c0,0-0.325,0.814,0.488,1.627c0.814,0.814,2.115,2.115,2.115,2.115
				s0.651,1.302,2.115,2.766c0.649,0.649,1.809,1.298,2.9,1.82c1.371,0.655,2.632,1.109,2.632,1.109s-2.115,0-3.742-0.325
				c-1.627-0.325-3.092-1.139-2.929,0c0.163,1.139,1.302,1.627,3.092,1.952c1.79,0.326,9.437,1.302,10.088,1.464
				c0.651,0.163,9.112,7.973,9.112,7.973L205.786,256.588z"/>
			<path style="fill:#FFFFFF;stroke:#263238;stroke-linecap:round;stroke-linejoin:round;stroke-miterlimit:10;" d="
				M190.328,240.805c0,0,3.254,0.976,4.393,1.953"/>
			
				<line style="fill:none;stroke:#263238;stroke-linecap:round;stroke-linejoin:round;stroke-miterlimit:10;" x1="184.471" y1="244.385" x2="188.701" y2="245.361"/>
			<path style="fill:none;stroke:#263238;stroke-linecap:round;stroke-linejoin:round;stroke-miterlimit:10;" d="M180.24,247.151
				c0,0,5.369,1.79,8.135,2.441"/>
		</g>
		<path style="fill:#92E3A9;stroke:#263238;stroke-linecap:round;stroke-linejoin:round;stroke-miterlimit:10;" d="M247.84,233.758
			c-0.128,0.899-1.541,13.614-5.266,26.457c-3.725,12.843-5.651,24.402-6.422,25.301c-0.771,0.899-9.119-2.312-15.926-6.422
			c-6.807-4.11-20.549-13.999-20.549-13.999l5.779-11.045l20.421,12.201c0,0,0.642-1.413,1.541-1.67
			c0.899-0.257,1.541-0.642,1.541-0.642l1.926-24.659"/>
		<path style="fill:#92E3A9;stroke:#263238;stroke-linecap:round;stroke-linejoin:round;stroke-miterlimit:10;" d="M177.37,257.695
			l7.212,10.244c0,0-2.169,6.65-4.337,9.253c-2.169,2.602-9.253,3.759-11.566,1.012c-2.313-2.747-1.735-6.94-0.434-9.253
			C169.547,266.638,177.37,257.695,177.37,257.695z"/>
	</g>
</g>
<g id="Floor">
	<line style="fill:none;stroke:#263238;stroke-miterlimit:10;" x1="20.542" y1="453.154" x2="467.477" y2="453.154"/>
</g>
</svg>
