<?xml version="1.0" encoding="utf-8"?>
<!-- Generator: Adobe Illustrator 27.5.0, SVG Export Plug-In . SVG Version: 6.00 Build 0)  -->
<svg version="1.1" xmlns="http://www.w3.org/2000/svg" xmlns:xlink="http://www.w3.org/1999/xlink" x="0px" y="0px"
	 viewBox="0 0 1000 500" style="enable-background:new 0 0 1000 500;" xml:space="preserve">
<g id="BACKGROUND">
	<rect style="fill:#FFFFFF;" width="1000" height="500"/>
</g>
<g id="OBJECTS">
	<g>
		<path style="fill:#F1F1F1;" d="M933.289,313.975c-21.323-39.794-59.684-70.866-103.261-76.621
			c-26.662-3.521-54.247,2.189-80.331-4.531c-28.197-7.265-51.345-28.2-78.771-38.142c-52.507-19.033-110.096,4.996-158.266,33.822
			c-31.909,19.094-65.08,41.239-101.909,40.015c-49.544-1.646-87.409-44.146-131.049-68.503
			c-48.704-27.184-110.773-31.086-159.028-3.057c-39.77,23.101-66.929,65.296-80.362,110.437
			c-13.433,45.142-14.366,93.282-11.433,140.422h925.916C960.125,402.64,954.612,353.768,933.289,313.975z"/>
	</g>
	<g>
		<g>
			<path style="fill:#E1E1E1;" d="M930.296,73.803c-8.717,5.054-17.434,10.108-26.15,15.162c-2.12-6.849-3.193-14.075-3.51-21.23
				C910.4,69.252,920.113,71.093,930.296,73.803z"/>
			<path style="fill:#F1F1F1;" d="M922.213,90.121c14.506-10.799,28.553-22.215,42.089-34.206
				c-25.003,1.168-48.954,3.806-73.731,7.959C901.722,71.87,912.375,80.563,922.213,90.121z"/>
			<path style="fill:none;stroke:#000000;stroke-linecap:round;stroke-linejoin:round;stroke-miterlimit:10;" d="M960.454,57.791
				c-18.881,4.603-37.611,9.828-56.334,16.063c6.222,5.009,12.21,10.31,17.938,15.878"/>
			<path style="fill:none;stroke:#000000;stroke-linecap:round;stroke-linejoin:round;stroke-miterlimit:10;" d="M920.993,59.475
				c-10.046,2.124-20.227,3.602-30.412,4.869c3.574,2.361,7.147,4.723,10.721,7.084"/>
		</g>
		<g>
			
				<path style="fill:none;stroke:#000000;stroke-linecap:round;stroke-linejoin:round;stroke-miterlimit:10;stroke-dasharray:4.3988,4.3988,4.3988,4.3988,4.3988,4.3988;" d="
				M154.968,298.239c-8.747,4.035-19.159,3.335-28.107-0.232c-8.948-3.567-16.612-9.76-23.466-16.528
				c-6.965-6.877-13.289-14.501-17.916-23.126c-14.683-27.371-9.33-64.056,12.562-86.09c21.892-22.034,58.541-27.625,86.007-13.12"
				/>
			
				<path style="fill:none;stroke:#000000;stroke-linecap:round;stroke-linejoin:round;stroke-miterlimit:10;stroke-dasharray:4.3988,4.3988,4.3988,4.3988,4.3988,4.3988;" d="
				M338.906,169.965c16.891-10.748,37.568-16.801,57.175-12.752c19.607,4.049,37.348,19.674,40.267,39.481
				c0.984,6.675,0.092,14.09-4.484,19.049c-4.576,4.959-13.536,6.006-17.864,0.83c-4.169-4.986-2.318-12.594,0.77-18.312
				c8.118-15.027,23.656-25.807,40.574-28.149c16.919-2.343,34.8,3.809,46.697,16.065"/>
			
				<path style="fill:none;stroke:#000000;stroke-linecap:round;stroke-linejoin:round;stroke-miterlimit:10;stroke-dasharray:4.3988,4.3988,4.3988,4.3988,4.3988,4.3988;" d="
				M598.966,227.882c23.568,16.619,54.936,19.067,83.021,12.518c18.627-4.343,37.284-13.108,47.929-28.999
				c14.959-22.332,11.006-53.552,26.356-75.617c4.316-6.204,9.969-11.359,15.874-16.076c13.042-10.419,27.803-19.074,44.018-23.04
				c16.215-3.966,34.014-2.927,48.695,5.017c14.682,7.944,25.672,23.307,26.295,39.989c0.404,10.816-5.94,23.565-16.76,23.829
				c-5.923,0.145-11.45-3.748-14.433-8.867c-2.983-5.119-3.737-11.268-3.431-17.184c1.208-23.409,19.755-44.816,42.753-49.346"/>
		</g>
	</g>
	<g>
		<g>
			<g>
				
					<ellipse transform="matrix(0.9561 -0.293 0.293 0.9561 -37.5447 172.2669)" style="fill:#FFFFFF;" cx="556.334" cy="211.475" rx="36.601" ry="33.162"/>
				<path style="fill:none;stroke:#000000;stroke-linecap:round;stroke-linejoin:round;stroke-miterlimit:10;" d="M520.071,215.696
					c0.732,11.91,9.602,22.511,20.743,26.784c11.141,4.273,24.021,2.696,34.353-2.925"/>
			</g>
			<g>
				<path style="fill:#E39033;" d="M555.255,221.811c-0.404-1.278-0.809-2.556-1.068-3.774c-3.353-0.335-6.685-1.368-9.416-3.341
					c-2.731-1.973-4.815-4.942-5.356-8.267c-0.795-4.891,1.87-9.885,5.777-12.932c5.636-4.396,13.886-5.124,20.205-1.784
					c9.248,4.888,7.855,13.676,5.214,18.097c-2.634,4.41-7.463,6.908-7.463,6.908s0.389,1.433,0.597,4.102
					C560.945,221.127,558.144,221.433,555.255,221.811z"/>
				<path style="fill:none;stroke:#000000;stroke-linecap:round;stroke-linejoin:round;stroke-miterlimit:10;" d="M560.115,221.122
					c0.934-2.903,1.872-5.82,2.352-8.832c0.48-3.012,0.487-6.147-0.42-9.059c-0.214-0.687-0.487-1.375-0.966-1.913
					c-0.479-0.537-1.2-0.904-1.912-0.8c-0.743,0.109-1.34,0.708-1.654,1.389c-0.314,0.682-0.394,1.445-0.469,2.192
					c-0.09,0.897,0.037,2.106,0.925,2.266c0.918,0.165,1.455-1.02,1.496-1.952c0.07-1.569-0.295-3.156-1.043-4.538
					c-0.741-1.37-2.157-2.639-3.683-2.325c-1.077,0.222-1.871,1.201-2.184,2.255c-0.313,1.054-0.229,2.18-0.12,3.274
					c0.627,6.265,2.339,12.452,4.874,18.089"/>
				<path style="fill:none;stroke:#000000;stroke-linecap:round;stroke-linejoin:round;stroke-miterlimit:10;" d="M546.567,195.939
					c-2.38,3.008-3.059,7.277-1.729,10.875"/>
				<path style="fill:none;stroke:#000000;stroke-linecap:round;stroke-linejoin:round;stroke-miterlimit:10;" d="M546.29,209.465
					c0.316,1.049,0.981,1.988,1.865,2.635"/>
				<path style="fill:none;stroke:#EBB956;stroke-linecap:round;stroke-linejoin:round;stroke-miterlimit:10;" d="M565.398,191.713
					c3.237,1.473,5.956,4.649,6.845,8.093c2.262,8.762-3.908,15.571-9.094,16.911c-0.13,0.246,0.326,1.474,0.44,2.528"/>
				<g>
					<path style="fill:#8D8D8D;" d="M555.324,221.778c0.227,3.652,0.905,7.276,2.015,10.763c0.323,1.015,0.771,2.12,1.737,2.568
						c1.001,0.464,2.175,0.047,3.175-0.421c0.982-0.46,1.987-1.011,2.554-1.935c0.753-1.227,0.553-2.788,0.328-4.21
						c-0.38-2.4-0.773-5.522-1.409-7.985C560.917,220.72,558.123,221.603,555.324,221.778z"/>
					<path style="fill:none;stroke:#000000;stroke-linecap:round;stroke-linejoin:round;stroke-miterlimit:10;" d="M565.246,224.654
						c-2.954-0.213-5.921-0.241-8.879-0.083"/>
					<path style="fill:none;stroke:#000000;stroke-linecap:round;stroke-linejoin:round;stroke-miterlimit:10;" d="M565.414,228.253
						c-3.026-0.131-6.052-0.262-9.078-0.394"/>
					<path style="fill:none;stroke:#000000;stroke-linecap:round;stroke-linejoin:round;stroke-miterlimit:10;" d="M565.424,231.759
						c-2.793-0.088-5.585-0.176-8.378-0.264"/>
					<path style="fill:none;stroke:#8D8D8D;stroke-linecap:round;stroke-linejoin:round;stroke-miterlimit:10;" d="M561.662,234.15
						c0.085,0.683,0.169,1.366,0.254,2.05"/>
				</g>
			</g>
			<path style="fill:none;stroke:#000000;stroke-linecap:round;stroke-linejoin:round;stroke-miterlimit:10;" d="M572.702,184.627
				c6.802,3.541,11.6,10.673,12.314,18.309"/>
			<path style="fill:none;stroke:#000000;stroke-linecap:round;stroke-linejoin:round;stroke-miterlimit:10;" d="M585.122,208.557
				c-0.453,2.126-0.906,4.251-1.359,6.377"/>
		</g>
		<g>
			<path style="fill:#F1F1F1;" d="M298.886,130.866v-22.275c0-6.157,4.992-11.149,11.149-11.149h168.17
				c6.157,0,11.149,4.992,11.149,11.149v22.275c0,6.157-4.992,11.149-11.149,11.149h-168.17
				C303.878,142.015,298.886,137.024,298.886,130.866z"/>
			
				<ellipse transform="matrix(0.1595 -0.9872 0.9872 0.1595 150.4853 416.7995)" style="fill:#66A0AF;" cx="320.014" cy="120.025" rx="13.854" ry="13.854"/>
			<path style="fill:none;stroke:#000000;stroke-linecap:round;stroke-linejoin:round;stroke-miterlimit:10;" d="M312.359,119.932
				c1.318,2.444,2.635,4.888,3.953,7.333c4.055-7.328,9.319-13.986,15.515-19.621"/>
			<path style="fill:none;stroke:#000000;stroke-linecap:round;stroke-linejoin:round;stroke-miterlimit:10;" d="M342.114,112.786
				h139.351H342.114z"/>
			<path style="fill:none;stroke:#000000;stroke-linecap:round;stroke-linejoin:round;stroke-miterlimit:10;" d="M342.114,120.025
				h139.351H342.114z"/>
			<path style="fill:none;stroke:#000000;stroke-linecap:round;stroke-linejoin:round;stroke-miterlimit:10;" d="M342.114,127.264
				h59.719H342.114z"/>
			<path style="fill:none;stroke:#000000;stroke-linecap:round;stroke-linejoin:round;stroke-miterlimit:10;" d="M489.103,115.183
				c0.135,5.087,0.271,10.174,0.428,15.397c0.195,6.492-5.027,11.855-11.522,11.838l-136.146-0.37"/>
		</g>
		<g>
			<path style="fill:#E1E1E1;" d="M294.782,265.445v-22.275c0-6.157,4.992-11.149,11.149-11.149h168.17
				c6.157,0,11.149,4.992,11.149,11.149v22.275c0,6.157-4.991,11.149-11.149,11.149h-168.17
				C299.774,276.594,294.782,271.602,294.782,265.445z"/>
			<circle style="fill:#66A0AF;" cx="315.91" cy="254.604" r="13.854"/>
			<path style="fill:none;stroke:#000000;stroke-linecap:round;stroke-linejoin:round;stroke-miterlimit:10;" d="M308.254,254.51
				c1.318,2.444,2.635,4.888,3.953,7.333c4.055-7.328,9.32-13.986,15.515-19.622"/>
			<path style="fill:none;stroke:#000000;stroke-linecap:round;stroke-linejoin:round;stroke-miterlimit:10;" d="M338.01,247.364
				H477.36H338.01z"/>
			<path style="fill:none;stroke:#000000;stroke-linecap:round;stroke-linejoin:round;stroke-miterlimit:10;" d="M338.01,254.604
				H477.36H338.01z"/>
			<path style="fill:none;stroke:#000000;stroke-linecap:round;stroke-linejoin:round;stroke-miterlimit:10;" d="M338.01,261.843
				h59.72H338.01z"/>
			<path style="fill:none;stroke:#000000;stroke-linecap:round;stroke-linejoin:round;stroke-miterlimit:10;" d="M484.998,249.761
				c0.135,5.087,0.271,10.174,0.428,15.398c0.195,6.492-5.027,11.855-11.522,11.838l-136.146-0.37"/>
		</g>
		<g>
			<path style="fill:#E1E1E1;" d="M781.495,224.204c-0.064-15.602-9.717-30.453-23.32-38.095
				c-13.603-7.642-30.567-8.351-45.308-3.24c-13.345,4.627-25.178,14.051-31.689,26.585c-6.511,12.534-7.314,28.14-1.127,40.837
				c6.335,13,19.535,22.062,33.757,24.682c14.222,2.62,28.525,1.763,40.963-5.612c7.725-4.58,15.324-13.317,20.108-20.917
				C779.662,240.844,781.525,231.755,781.495,224.204z"/>
			<path style="fill:#E1E1E1;" d="M773.518,220.264c7.513,6.233,15.026,12.467,22.538,18.7c-8.96,2.849-17.92,5.699-26.88,8.548
				C770.466,238.731,771.756,229.95,773.518,220.264z"/>
			<g>
				<path style="fill:#FFFFFF;" d="M713.195,202.539c0.319,6.386,0.638,12.773,0.957,19.159c-6.217,1.179-12.568,1.654-18.891,1.411
					c0.114-6.425,0.229-12.851,0.399-19.45C702.096,203.899,708.551,203.646,713.195,202.539z"/>
				<g>
					<path style="fill:none;stroke:#D56B96;stroke-linecap:round;stroke-linejoin:round;stroke-miterlimit:10;" d="M706.788,208.554
						c-1.685,2.748-3.371,5.496-5.056,8.243"/>
					<path style="fill:none;stroke:#D56B96;stroke-linecap:round;stroke-linejoin:round;stroke-miterlimit:10;" d="M699.952,209.107
						c2.975,2.473,5.95,4.946,8.925,7.419"/>
				</g>
				<path style="fill:none;stroke:#000000;stroke-linecap:round;stroke-linejoin:round;stroke-miterlimit:10;" d="M719.488,204.852
					c13.29,0.293,26.581,0.586,39.871,0.88"/>
				<path style="fill:none;stroke:#000000;stroke-linecap:round;stroke-linejoin:round;stroke-miterlimit:10;" d="M719.288,210.378
					c7.178,0.207,14.357,0.414,21.535,0.621"/>
				<path style="fill:none;stroke:#000000;stroke-linecap:round;stroke-linejoin:round;stroke-miterlimit:10;" d="M746.131,212.032
					c3.209,0.081,6.417,0.161,9.626,0.242"/>
				<path style="fill:none;stroke:#000000;stroke-linecap:round;stroke-linejoin:round;stroke-miterlimit:10;" d="M719.345,218.1
					c10.684,0.304,21.368,0.608,32.052,0.912"/>
			</g>
			<g>
				<path style="fill:#FFFFFF;" d="M716.063,252.819c-0.183-6.443,0.034-12.898,0.65-19.314c-7.351-0.532-13.669-0.715-19.988-0.898
					c-1.12,7.142-1.408,14.091-1.114,21.123C702.273,254.808,709.08,254.99,716.063,252.819z"/>
				<path style="fill:none;stroke:#66A0AF;stroke-linecap:round;stroke-linejoin:round;stroke-miterlimit:10;" d="M701.425,242.019
					c1.075,1.843,2.151,3.686,3.226,5.528c2.328-3.469,5.254-6.695,8.674-9.565"/>
				<path style="fill:none;stroke:#000000;stroke-linecap:round;stroke-linejoin:round;stroke-miterlimit:10;" d="M720.86,235.19
					c11.704,0.24,23.408,0.481,35.112,0.721"/>
				<path style="fill:none;stroke:#000000;stroke-linecap:round;stroke-linejoin:round;stroke-miterlimit:10;" d="M721.134,240.846
					c12.841,1.221,25.754,1.694,38.65,1.413"/>
				<path style="fill:none;stroke:#000000;stroke-linecap:round;stroke-linejoin:round;stroke-miterlimit:10;" d="M721.976,247.729
					c4.453,0.253,8.918,0.293,13.375,0.119"/>
			</g>
			<path style="fill:none;stroke:#000000;stroke-linecap:round;stroke-linejoin:round;stroke-miterlimit:10;" d="M689.792,263.866
				c13.188,11.03,31.552,15.577,48.363,11.977c16.811-3.601,31.701-15.272,39.016-29.944c6.481-1.958,12.962-3.916,19.444-5.875"/>
		</g>
		<g>
			<g>
				<g>
					<path style="fill:#FFFFFF;" d="M396.921,196.669c0,0,0.977-92.067-1.397-138.033c-59.466-0.255-212.495-0.531-271.38-0.807
						c0.262,44.441,3.48,138.236,3.48,138.236L396.921,196.669z"/>
					<path style="fill:#3F6888;stroke:#3F6888;stroke-linecap:round;stroke-linejoin:round;stroke-miterlimit:10;" d="
						M124.144,57.829c0.224,7.39-0.488,11.03-0.369,17.231c60.249,2.705,212.251,2.083,272.572,1.36
						c-0.329-2.332-0.823-17.784-0.823-17.784S161.756,57.829,124.144,57.829z"/>
					<g>
						<path style="fill:#D04060;" d="M383.98,67.447c0-1.171,0.949-2.119,2.119-2.119c1.171,0,2.12,0.949,2.12,2.119
							c0,1.171-0.949,2.119-2.12,2.119C384.929,69.566,383.98,68.617,383.98,67.447z"/>
						<path style="fill:#EBB956;" d="M376.525,67.447c0-1.171,0.949-2.119,2.12-2.119c1.171,0,2.119,0.949,2.119,2.119
							c0,1.171-0.949,2.119-2.119,2.119C377.474,69.566,376.525,68.617,376.525,67.447z"/>
						<path style="fill:#78C3CE;" d="M369.217,67.447c0-1.171,0.949-2.119,2.119-2.119c1.171,0,2.12,0.949,2.12,2.119
							c0,1.171-0.949,2.119-2.12,2.119C370.166,69.566,369.217,68.617,369.217,67.447z"/>
					</g>
					<path style="fill:none;stroke:#000000;stroke-linecap:round;stroke-linejoin:round;stroke-miterlimit:10;" d="M127.624,196.065
						l269.528,0.233c0,0,0-69.014-0.179-102.287"/>
					<path style="fill:none;stroke:#000000;stroke-linecap:round;stroke-linejoin:round;stroke-miterlimit:10;" d="M124.03,66.285
						c0.053,2.208,0.053,9.876,0.053,9.876c58.79,2.556,214.28,0,272.264,0.258"/>
				</g>
			</g>
			<g>
				<g>
					<ellipse style="fill:#EBB956;" cx="181.031" cy="137.503" rx="35.432" ry="33.68"/>
					<g>
						<path style="fill:#D04060;" d="M209.387,157.699c4.443-5.627,7.076-12.619,7.076-20.196c0-11.038-5.586-20.835-14.217-26.978
							c-8.313,7.958-15.916,16.506-22.813,25.799C189.7,143.023,199.641,150.247,209.387,157.699z"/>
					</g>
					<g>
						<path style="fill:#3F6888;" d="M181.031,103.823c-0.185,0-0.368,0.011-0.553,0.013c-0.666,10.682-1.166,21.633-1.045,32.488
							c8.286-8,16.897-16.033,25.544-23.641C198.67,107.183,190.264,103.823,181.031,103.823z"/>
					</g>
					<path style="fill:none;stroke:#000000;stroke-linecap:round;stroke-linejoin:round;stroke-miterlimit:10;" d="M190.575,105.049
						c-3.3-0.795-6.568-1.339-9.835-0.25c0,8.169-1.089,15.794-1.117,24.022"/>
					<path style="fill:none;stroke:#000000;stroke-linecap:round;stroke-linejoin:round;stroke-miterlimit:10;" d="M191.772,125.143
						c4.55-4.093,9.101-8.187,13.189-12.218c3.239,2.304,5.772,5.586,7.182,9.303"/>
					<path style="fill:none;stroke:#000000;stroke-linecap:round;stroke-linejoin:round;stroke-miterlimit:10;" d="M181.797,137.83
						c8.941,6.535,17.882,13.071,27.455,19.927c-6.114,7.366-13.309,12.091-22.788,13.426c-21.376,3.011-39.49-13.865-40.77-31.776"
						/>
				</g>
				<g>
					<g>
						<path style="fill:none;stroke:#000000;stroke-linecap:round;stroke-linejoin:round;stroke-miterlimit:10;" d="
							M193.752,111.583c0.066-3.537,0.132-7.075,0.381-10.544c11.59-0.502,23.179-1.005,34.769-1.507"/>
						<path d="M227.897,99.532c0-1.917,1.554-3.472,3.472-3.472c1.917,0,3.472,1.555,3.472,3.472c0,1.918-1.554,3.472-3.472,3.472
							C229.451,103.004,227.897,101.449,227.897,99.532z"/>
					</g>
					<g>
						<path style="fill:none;stroke:#000000;stroke-linecap:round;stroke-linejoin:round;stroke-miterlimit:10;" d="
							M202.047,136.602c9.58-0.562,19.178-0.823,28.774-0.785"/>
						<path d="M227.897,135.491c0-1.917,1.554-3.472,3.472-3.472c1.917,0,3.472,1.555,3.472,3.472c0,1.917-1.554,3.472-3.472,3.472
							C229.451,138.963,227.897,137.408,227.897,135.491z"/>
					</g>
					<g>
						<path style="fill:none;stroke:#000000;stroke-linecap:round;stroke-linejoin:round;stroke-miterlimit:10;" d="
							M197.482,158.495c0.456,4.467,0.701,8.961,0.648,13.155c11.584-0.077,23.168-0.154,34.752-0.231"/>
						<path d="M227.897,171.45c0-1.917,1.554-3.472,3.472-3.472c1.917,0,3.472,1.554,3.472,3.472c0,1.917-1.554,3.472-3.472,3.472
							C229.451,174.922,227.897,173.367,227.897,171.45z"/>
					</g>
				</g>
				<g>
					<path style="fill:none;stroke:#000000;stroke-linecap:round;stroke-linejoin:round;stroke-miterlimit:10;" d="M243.636,97.559
						c13.639-0.267,27.278-0.534,40.917-0.801"/>
					<path style="fill:none;stroke:#000000;stroke-linecap:round;stroke-linejoin:round;stroke-miterlimit:10;" d="M243.342,102.92
						c13.439-0.084,26.877-0.168,40.316-0.253"/>
					<path style="fill:none;stroke:#000000;stroke-linecap:round;stroke-linejoin:round;stroke-miterlimit:10;" d="M244.365,108.299
						c12.739-0.07,25.477-0.14,38.216-0.21"/>
				</g>
				<g>
					<path style="fill:none;stroke:#000000;stroke-linecap:round;stroke-linejoin:round;stroke-miterlimit:10;" d="M242.819,130.521
						c13.639-0.267,27.278-0.534,40.917-0.801"/>
					<path style="fill:none;stroke:#000000;stroke-linecap:round;stroke-linejoin:round;stroke-miterlimit:10;" d="M242.525,135.882
						c13.439-0.084,26.877-0.168,40.316-0.253"/>
					<path style="fill:none;stroke:#000000;stroke-linecap:round;stroke-linejoin:round;stroke-miterlimit:10;" d="M243.549,141.262
						c12.739-0.07,25.477-0.14,38.216-0.21"/>
				</g>
				<g>
					<path style="fill:none;stroke:#000000;stroke-linecap:round;stroke-linejoin:round;stroke-miterlimit:10;" d="M242.002,166.466
						c13.639-0.267,27.278-0.534,40.917-0.801"/>
					<path style="fill:none;stroke:#000000;stroke-linecap:round;stroke-linejoin:round;stroke-miterlimit:10;" d="M241.708,171.826
						c13.438-0.084,26.877-0.169,40.316-0.253"/>
					<path style="fill:none;stroke:#000000;stroke-linecap:round;stroke-linejoin:round;stroke-miterlimit:10;" d="M242.732,177.206
						c12.739-0.07,25.477-0.14,38.216-0.21"/>
				</g>
			</g>
		</g>
		<g>
			<g>
				<path style="fill:#F1F1F1;" d="M846.171,164.75c1.443-46.004,0.977-92.068-1.397-138.033
					c-59.466-0.255-118.351-0.531-177.236-0.807c0.262,44.441,1.298,91.223,3.48,138.236
					C729.757,168.527,788.829,168.434,846.171,164.75z"/>
				<path style="fill:#3F6888;stroke:#3F6888;stroke-linecap:round;stroke-linejoin:round;stroke-miterlimit:10;" d="M667.538,25.91
					c0.224,7.39-0.488,11.03-0.37,17.231c60.249,2.705,118.108,2.083,178.428,1.36c-0.329-2.332-0.823-17.784-0.823-17.784
					S705.15,25.91,667.538,25.91z"/>
				<g>
					<path style="fill:#D04060;" d="M833.23,35.527c0-1.171,0.949-2.119,2.119-2.119c1.171,0,2.12,0.949,2.12,2.119
						c0,1.171-0.949,2.119-2.12,2.119C834.179,37.646,833.23,36.698,833.23,35.527z"/>
					<path style="fill:#EBB956;" d="M825.775,35.527c0-1.171,0.949-2.119,2.12-2.119c1.171,0,2.119,0.949,2.119,2.119
						c0,1.171-0.949,2.119-2.119,2.119C826.724,37.646,825.775,36.698,825.775,35.527z"/>
					<path style="fill:#78C3CE;" d="M818.467,35.527c0-1.171,0.949-2.119,2.119-2.119c1.171,0,2.119,0.949,2.119,2.119
						c0,1.171-0.949,2.119-2.119,2.119C819.416,37.646,818.467,36.698,818.467,35.527z"/>
				</g>
				<path style="fill:none;stroke:#000000;stroke-linecap:round;stroke-linejoin:round;stroke-miterlimit:10;" d="M671.018,164.145
					c57.804,2.789,116.594,5.345,175.384,0.233c0-33.229,0-69.014-0.179-102.287"/>
				<path style="fill:none;stroke:#000000;stroke-linecap:round;stroke-linejoin:round;stroke-miterlimit:10;" d="M667.424,34.366
					c0.053,2.208,0.053,9.876,0.053,9.876c58.79,2.556,120.136,0,178.12,0.258"/>
			</g>
			<g>
				<path style="fill:#EBB956;" d="M707.33,66.987c-0.171,28.951-0.342,59.026-0.513,87.977c5.081-0.597,10.163,0.597,15.245,0
					c0.887-28.827,0.813-60.602-0.221-89.424C716.986,66.022,712.131,66.506,707.33,66.987z"/>
				<g>
					<path style="fill:#E39033;" d="M722.651,119.93c-5.207,0.324-10.421,0.535-15.637,0.642
						c-0.065,11.089-0.131,23.303-0.196,34.392c5.081-0.597,10.163,0.597,15.244,0C722.391,144.261,722.587,130.637,722.651,119.93z
						"/>
				</g>
				<path style="fill:#EBB956;" d="M763.569,52.811c-0.171,34.051-0.513,102.153-0.513,102.153s12.82-0.299,15.245,0
					c0.887-33.906,0.813-69.955-0.221-103.855C773.225,51.676,768.37,52.245,763.569,52.811z"/>
				<g>
					<path style="fill:#E39033;" d="M778.834,88.829c-5.207,0.381-9.99,1.01-15.206,1.137c-0.065,13.042-0.506,51.955-0.571,64.997
						c5.081-0.703,10.163,0.703,15.244,0C778.63,142.376,778.769,101.423,778.834,88.829z"/>
				</g>
				<path style="fill:#66A0AF;" d="M735.197,80.991c0,0,0.602,52.01,1.148,73.973c5.42,0.27,10.84-0.27,16.261,0
					c-0.661-24.259-1.322-50.331-1.982-74.59C750.102,80.791,735.197,80.991,735.197,80.991z"/>
				<g>
					<path style="fill:#78C3CE;" d="M750.961,92.796c-0.113-4.141-0.226-8.281-0.339-12.421c-0.521,0.417-15.426,0.617-15.426,0.617
						s0.06,4.895,0.158,12.285C740.548,92.895,745.756,92.74,750.961,92.796z"/>
				</g>
				<path style="fill:#66A0AF;" d="M805.095,154.964c0,0-0.227-34.129-0.773-43.521c-5.42-0.115-8.591-0.605-14.011-0.721
					c0.661,10.373-1.303,33.868-0.642,44.241C790.191,154.785,805.095,154.964,805.095,154.964z"/>
				<g>
					<path style="fill:#3F6888;" d="M789.331,142.581c0.113,4.127,0.226,8.255,0.339,12.383c0.521-0.416,15.426,0,15.426,0
						s-0.06-5.495-0.158-12.861C799.745,142.482,794.537,142.637,789.331,142.581z"/>
				</g>
				<path style="fill:none;stroke:#000000;stroke-linecap:round;stroke-linejoin:round;stroke-miterlimit:10;" d="M695.022,154.964
					c1.924-0.124,122.177,1.249,124.101,1.125"/>
				<path style="fill:none;stroke:#000000;stroke-linecap:round;stroke-linejoin:round;stroke-miterlimit:10;" d="M707.973,68.196
					c-0.301,28.623-0.602,57.245-0.903,85.868"/>
				<path style="fill:none;stroke:#000000;stroke-linecap:round;stroke-linejoin:round;stroke-miterlimit:10;" d="M735.784,80.015
					c0.065,25.073,0.13,50.146,0.194,75.219"/>
				<path style="fill:none;stroke:#000000;stroke-linecap:round;stroke-linejoin:round;stroke-miterlimit:10;" d="M764.036,53.012
					c-1.703,34.307-1.818,68.694-0.344,103.012"/>
				<path style="fill:none;stroke:#000000;stroke-linecap:round;stroke-linejoin:round;stroke-miterlimit:10;" d="M790.558,110.414
					c-0.44,14.896-0.88,29.792-1.319,44.688"/>
				<path style="fill:none;stroke:#000000;stroke-linecap:round;stroke-linejoin:round;stroke-miterlimit:10;" d="M790.09,142.45
					c5.14,0.215,10.28,0.43,15.42,0.645"/>
				<path style="fill:none;stroke:#000000;stroke-linecap:round;stroke-linejoin:round;stroke-miterlimit:10;" d="M763.521,88.912
					c5.138-0.124,10.275-0.248,15.412-0.372"/>
				<path style="fill:none;stroke:#000000;stroke-linecap:round;stroke-linejoin:round;stroke-miterlimit:10;" d="M736.574,93.191
					c4.75,0.421,9.539,0.404,14.285-0.052"/>
				<path style="fill:none;stroke:#000000;stroke-linecap:round;stroke-linejoin:round;stroke-miterlimit:10;" d="M708.499,120.559
					c4.303-0.125,8.606-0.251,12.909-0.376"/>
			</g>
		</g>
		<g>
			<g>
				<polygon style="fill:#E1E1E1;" points="635.128,160.594 633.019,38.993 512.852,38.154 511.719,160.91 				"/>
				<path style="fill:#3F6888;stroke:#3F6888;stroke-linecap:round;stroke-linejoin:round;stroke-miterlimit:10;" d="
					M512.852,38.154c0.425,14.046-0.387,14.511-0.387,14.511l121.126,2.571l-0.572-16.243
					C633.019,38.993,584.34,38.154,512.852,38.154z"/>
				<g>
					<path style="fill:#D04060;" d="M619.369,46.695c0-1.094,0.887-1.98,1.98-1.98c1.094,0,1.98,0.886,1.98,1.98
						c0,1.094-0.887,1.98-1.98,1.98C620.255,48.675,619.369,47.789,619.369,46.695z"/>
					<path style="fill:#EBB956;" d="M612.404,46.695c0-1.094,0.887-1.98,1.98-1.98c1.094,0,1.98,0.886,1.98,1.98
						c0,1.094-0.887,1.98-1.98,1.98C613.291,48.675,612.404,47.789,612.404,46.695z"/>
					<path style="fill:#78C3CE;" d="M605.576,46.695c0-1.094,0.887-1.98,1.98-1.98s1.98,0.886,1.98,1.98
						c0,1.094-0.887,1.98-1.98,1.98S605.576,47.789,605.576,46.695z"/>
				</g>
				<polyline style="fill:none;stroke:#000000;stroke-linecap:round;stroke-linejoin:round;stroke-miterlimit:10;" points="
					545.795,160.141 635.128,160.594 633.019,38.993 				"/>
				<path style="fill:none;stroke:#000000;stroke-linecap:round;stroke-linejoin:round;stroke-miterlimit:10;" d="M512.852,38.154
					c0.146,4.668,0.715,9.922-0.387,14.511c26.615,0.565,53.23,1.13,79.845,1.695c8.75,0.186,17.5,0.371,26.25,0.557"/>
			</g>
			<g>
				<path style="fill:#EBB956;" d="M548.946,137.816c0.309-13.604,0.617-27.208,0.926-40.812c-4.837-0.111-9.718-0.328-14.6-0.545
					c0.069,13.711,0.102,28.038,0.365,41.357C540.359,138.067,545.081,137.391,548.946,137.816z"/>
				<path style="fill:none;stroke:#000000;stroke-linecap:round;stroke-linejoin:round;stroke-miterlimit:10;" d="M543.04,96.693
					c2.392,0.055,4.785,0.11,7.199-0.033c-0.387,13.65-0.774,27.299-1.161,40.949"/>
				<path style="fill:#D04060;" d="M592.558,137.826c0.309-11.276,0.617-22.552,0.926-33.828c-4.837-0.092-9.718-0.272-14.6-0.452
					c0.069,11.364,0.102,23.24,0.365,34.279C583.971,138.034,588.693,137.473,592.558,137.826z"/>
				<path style="fill:none;stroke:#000000;stroke-linecap:round;stroke-linejoin:round;stroke-miterlimit:10;" d="M586.652,103.74
					c2.393,0.046,4.785,0.091,7.199-0.028c-0.387,11.314-0.774,22.628-1.161,33.942"/>
				<path style="fill:#78C3CE;" d="M570.061,137.798c0.309-17.93,0.617-35.861,0.926-53.791c-4.837-0.146-9.718-0.432-14.6-0.718
					c0.069,18.071,0.102,36.956,0.365,54.51C561.474,138.128,566.196,137.237,570.061,137.798z"/>
				<path style="fill:none;stroke:#000000;stroke-linecap:round;stroke-linejoin:round;stroke-miterlimit:10;" d="M564.155,83.596
					c2.392,0.073,4.785,0.145,7.199-0.044c-0.387,17.991-0.774,35.982-1.161,53.973"/>
				<path style="fill:#3F6888;" d="M615.362,137.85c0.309-5.638,0.617-11.276,0.926-16.914c-4.837-0.046-9.718-0.136-14.6-0.226
					c0.069,5.682,0.102,11.62,0.365,17.14C606.775,137.954,611.497,137.674,615.362,137.85z"/>
				<path style="fill:none;stroke:#000000;stroke-linecap:round;stroke-linejoin:round;stroke-miterlimit:10;" d="M609.456,120.807
					c2.392,0.023,4.785,0.046,7.199-0.014c-0.387,5.657-0.774,11.314-1.161,16.971"/>
				<path style="fill:none;stroke:#000000;stroke-linecap:round;stroke-linejoin:round;stroke-miterlimit:10;" d="M525.243,71.345
					c0.256,21.345,0.513,43.871,1.687,66.471c2.177,0.093,96.03,0.089,97.164,0"/>
			</g>
		</g>
	</g>
	<g>
		<g>
			<path style="fill:#C1C1C1;" d="M951.479,448.271h-6.102l29.196-111.124c-12.246-36.077-24.36-68.326-37.025-98.56l-1.121-2.676
				l5.352-2.242l1.121,2.676c12.815,30.591,25.064,63.224,37.449,99.764l0.28,0.826L951.479,448.271z"/>
			<g>
				<path style="fill:#8D8D8D;" d="M979.246,326.95c-0.43-1.174-1.093-2.214-1.922-3.08c-0.515,0.489-1.03,0.978-1.545,1.467
					c-0.65-0.661-1.341-1.068-2.087-1.301c0.392-0.68,0.745-1.359,1.058-2.039c-1.08-0.522-2.269-0.829-3.505-0.879
					c-0.021,0.816-0.042,1.633-0.063,2.449c-0.927-0.008-1.703,0.193-2.396,0.556c-0.237-0.878-0.509-1.719-0.822-2.522
					c-1.223,0.421-2.308,1.091-3.207,1.941c0.641,0.675,1.282,1.349,1.923,2.024c-0.661,0.65-1.068,1.341-1.301,2.087
					c-0.874-0.503-1.746-0.942-2.62-1.313c-0.526,1.156-0.809,2.43-0.799,3.747c0.983,0.025,1.967,0.051,2.95,0.076
					c-0.008,0.927,0.193,1.704,0.556,2.396c-0.982,0.264-1.918,0.574-2.805,0.934c0.528,1.254,1.325,2.343,2.308,3.211
					c0.672-0.613,1.348-1.162,2.036-1.588c0.561,0.259,1.121,0.518,1.515,0.852c-0.271,0.797-0.542,1.593-0.812,2.39
					c1.212,0.462,2.534,0.664,3.889,0.553c0.048-0.785,0.135-1.536,0.298-2.225c0.58-0.213,1.159-0.426,1.673-0.469
					c0.319,0.648,0.638,1.295,0.957,1.943c1.202-0.538,2.246-1.325,3.081-2.287c-0.434-0.507-0.824-1.017-1.144-1.534
					c0.259-0.561,0.518-1.121,0.852-1.514c0.601,0.204,1.202,0.408,1.802,0.612c0.48-1.155,0.719-2.42,0.672-3.721
					c-0.616-0.053-1.205-0.135-1.756-0.265c-0.213-0.58-0.426-1.159-0.468-1.673C978.123,327.503,978.685,327.227,979.246,326.95z"
					/>
				<path style="fill:none;stroke:#000000;stroke-linecap:round;stroke-linejoin:round;stroke-miterlimit:10;" d="M969.412,328.002
					c-0.687,0.721-1.067,1.763-0.867,2.739c0.2,0.975,1.037,1.824,2.029,1.91c0.846,0.074,1.684-0.401,2.169-1.098
					c0.624-0.899,0.667-2.197,0.013-3.073C972.1,327.604,970.459,326.904,969.412,328.002z"/>
				<path style="fill:none;stroke:#000000;stroke-linecap:round;stroke-linejoin:round;stroke-miterlimit:10;" d="M972.419,324.75
					c1.714,0.671,3.089,2.155,3.627,3.915c0.538,1.76,0.228,3.76-0.819,5.274"/>
			</g>
			<path style="fill:none;stroke:#000000;stroke-linecap:round;stroke-linejoin:round;stroke-miterlimit:10;" d="M981.015,337.759
				c-10.519,37.95-19.017,72.562-29.536,110.512"/>
			<path style="fill:none;stroke:#000000;stroke-linecap:round;stroke-linejoin:round;stroke-miterlimit:10;" d="M936.839,237.04
				c8.476,19.168,16.267,38.639,23.353,58.364"/>
			<g>
				<path style="fill:#EBB956;" d="M925.998,301.53c8.401-15.944,16.904-32.17,20.411-49.848c0.873-4.402,1.427-8.957,0.58-13.364
					c-0.847-4.407-3.274-8.684-7.187-10.881c-6.009-3.374-13.623-1.086-19.615,2.318c-9.509,5.404-17.362,13.373-23.87,22.164
					S884.559,270.355,879,280.2C894.233,287.181,909.466,294.161,925.998,301.53z"/>
				<path style="fill:#EBB956;" d="M938.405,234.008c2.896-5.096,5.791-10.193,8.687-15.289c-1.801-1.554-3.552-2.599-5.43-3.312
					c-3.442,5.641-6.365,11.473-9.257,17.559C934.243,233.443,936.081,233.919,938.405,234.008z"/>
				<path style="fill:none;stroke:#000000;stroke-linecap:round;stroke-linejoin:round;stroke-miterlimit:10;" d="M930.602,226.436
					c-5.752,0.557-11.173,3.132-15.802,6.592c-4.629,3.46-8.535,7.786-12.231,12.229c-8.966,10.775-16.888,22.417-23.194,34.789
					c5.379,2.591,10.759,5.182,16.138,7.773"/>
				<path style="fill:none;stroke:#000000;stroke-linecap:round;stroke-linejoin:round;stroke-miterlimit:10;" d="M941.671,239.118
					c0.618,10.188-1.597,20.533-6.332,29.574"/>
				<path style="fill:none;stroke:#000000;stroke-linecap:round;stroke-linejoin:round;stroke-miterlimit:10;" d="M934.242,271.475
					c-1.298,2.723-2.596,5.446-3.894,8.169"/>
			</g>
		</g>
		<g>
			
				<line style="fill:none;stroke:#000000;stroke-linecap:round;stroke-linejoin:round;stroke-miterlimit:10;" x1="968.409" y1="448.266" x2="19.788" y2="448.271"/>
		</g>
		<g>
			<path style="fill:#8D8D8D;" d="M858.066,418.066c13.965,0.24,27.93,0.48,41.895,0.72c2.482,0.043,4.99,0.083,7.416-0.444
				c2.426-0.526,4.798-1.68,6.329-3.634c2.274-2.903,2.297-6.917,2.218-10.604c-0.186-8.589-0.371-17.177-0.557-25.766
				c-0.077-3.544-0.159-7.129-1.078-10.552c-0.92-3.423-2.776-6.723-5.729-8.683c-3.051-2.024-6.872-2.404-10.524-2.665
				c-10.914-0.779-21.868-1.003-33.091-0.632C861.89,376.319,859.666,396.955,858.066,418.066z"/>
			<g>
				<path style="fill:none;stroke:#000000;stroke-linecap:round;stroke-linejoin:round;stroke-miterlimit:10;" d="M899.533,357.236
					c4.072,0.36,8.403,1.368,11.115,4.426c2.083,2.349,2.883,5.548,3.44,8.638c1.589,8.821,1.755,17.829,1.918,26.791"/>
				<path style="fill:none;stroke:#000000;stroke-linecap:round;stroke-linejoin:round;stroke-miterlimit:10;" d="M906.576,368.54
					c1.834,12.448,2.297,25.097,1.379,37.645c-0.223,3.053-0.763,6.513-3.313,8.207"/>
			</g>
		</g>
		<g>
			<g>
				<path style="fill:#373537;" d="M631.59,379.727c5.872,26.837,11.743,54.14,17.615,80.977c-1.063-0.075-12.03-0.054-13.014-0.054
					c-4.885-26.623-10.336-54.315-17.419-81.101C623.404,380.527,628.2,380.72,631.59,379.727z"/>
				<path style="fill:none;stroke:#000000;stroke-linecap:round;stroke-linejoin:round;stroke-miterlimit:10;" d="M623.155,460.791
					c1.3-0.278,36.18-0.087,37.158,0.08"/>
				<path style="fill:none;stroke:#000000;stroke-linecap:round;stroke-linejoin:round;stroke-miterlimit:10;" d="M627.859,407.989
					c2.096,9.67,4.192,19.341,6.289,29.011"/>
			</g>
			<g>
				<path style="fill:#373537;" d="M682.854,279.93l-160.112-0.218c-1.24,2.311-2.421,4.653-3.571,7.012
					c-0.752,1.543-1.498,3.088-2.253,4.63c6.703,26.964,23.024,91.631,26.155,94.768c36.243-1.076,129.489-2.941,155.286-3.45
					c0.176-0.376,0.352-0.752,0.527-1.128c1.374-2.951,2.732-5.91,4.041-8.89L682.854,279.93z"/>
				<path style="fill:none;stroke:#000000;stroke-linecap:round;stroke-linejoin:round;stroke-miterlimit:10;" d="M674.738,285.509
					c0.648,2.588,18.275,70.394,23.656,91.885"/>
				<path style="fill:none;stroke:#000000;stroke-linecap:round;stroke-linejoin:round;stroke-miterlimit:10;" d="M527.732,293.39
					c10.077-0.263,20.155-0.527,30.232-0.79"/>
				<path style="fill:none;stroke:#000000;stroke-linecap:round;stroke-linejoin:round;stroke-miterlimit:10;" d="M527.696,299.782
					c10.323-0.521,20.646-1.042,30.969-1.563"/>
				<path style="fill:none;stroke:#000000;stroke-linecap:round;stroke-linejoin:round;stroke-miterlimit:10;" d="M529.085,306.341
					c9.692-0.449,19.384-0.897,29.076-1.346"/>
				<path style="fill:none;stroke:#000000;stroke-linecap:round;stroke-linejoin:round;stroke-miterlimit:10;" d="M531.143,312.406
					c9.532-0.693,19.063-1.386,28.595-2.079"/>
				<path style="fill:none;stroke:#000000;stroke-linecap:round;stroke-linejoin:round;stroke-miterlimit:10;" d="M533.057,319.263
					c9.11-0.77,18.22-1.539,27.33-2.309"/>
			</g>
		</g>
		<g>
			<path style="fill:#8D8D8D;" d="M608.435,259.252c1.968-0.898,4.384-0.549,6.172,0.668c1.788,1.217,2.966,3.212,3.436,5.323
				c0.47,2.111,0.274,4.331-0.442,6.716c-1.569,0.17-3.138,0.34-4.403,0.921C612.386,268.091,610.684,263.453,608.435,259.252z"/>
			<path style="fill:#8D8D8D;" d="M598.976,274.335c-3.688,0.943-7.041,3.15-9.366,6.165c-2.324,3.015-3.606,6.819-3.473,11.02
				c2.891-0.016,5.782-0.032,9.133,0.584c1.231-5.521,5.062-10.404,9.941-12.465c0.318,0.213,9.577,0.41,10.061,0.318
				c-1.893-2.585-4.609-4.557-7.653-5.557C604.576,273.399,601.34,273.73,598.976,274.335z"/>
			<path style="fill:none;stroke:#000000;stroke-linecap:round;stroke-linejoin:round;stroke-miterlimit:10;" d="M608.478,278.025
				c-3.259-0.976-6.89,0.231-9.477,2.44s-4.27,5.295-5.55,8.447"/>
			<path style="fill:#8D8D8D;" d="M614.807,273.873c-5.324,2.638-11.583,3.337-17.359,1.941c-4.344-1.05-9.039-4.06-7.819-9.239
				c0.264-1.122,0.804-2.16,1.5-3.078c3.239-4.273,8.735-7.008,12.449-6.604c4.753,0.294,8.38,1.943,10.585,5.519
				S616.727,270.504,614.807,273.873z"/>
			<path style="fill:#D04060;" d="M596.156,261.454c-0.38-1.134-0.764-2.334-0.523-3.506c0.241-1.172,1.357-2.254,2.527-2.005
				c0.977,0.208,1.699,1.466,2.072,2.393C600.294,258.491,599.703,260.702,596.156,261.454z"/>
			<path style="fill:none;stroke:#000000;stroke-linecap:round;stroke-linejoin:round;stroke-miterlimit:10;" d="M606.911,260.724
				c2.663,0.836,4.794,3.181,5.373,5.912"/>
			<path style="fill:none;stroke:#000000;stroke-linecap:round;stroke-linejoin:round;stroke-miterlimit:10;" d="M612.32,269.258
				c0.341,0.73,0.378,1.597,0.102,2.354"/>
		</g>
		<g>
			<g>
				<path d="M790.604,296.651c-3.586,8.832-9.964,16.197-14.859,24.376c-4.895,8.179-8.356,18.148-5.696,26.174
					c7.157,4.827,16.327,5.16,24.958,5.329c16.55,0.325,33.227,0.638,49.521-2.28c16.294-2.917,32.375-9.319,44.492-20.81
					c0.948-11.338-4.111-23.007-13.034-30.066c-7.217-5.709-16.328-8.295-24.806-11.872c-8.478-3.577-17.041-8.849-19.707-16.64
					C816.875,276.496,797.134,280.571,790.604,296.651z"/>
				<path d="M835.854,281.154c2.378-6.459,4.961-13.218,10.215-17.663c2.092-1.77,4.844-3.148,7.51-2.512
					c1.874,0.447,3.399,1.829,4.539,3.383c1.348,1.838,2.283,4.007,2.497,6.276s-0.325,4.634-1.661,6.481
					c-1.576,2.179-4.101,3.481-6.655,4.324C846.867,283.236,840.87,283.266,835.854,281.154z"/>
				<path style="fill:none;stroke:#000000;stroke-linecap:round;stroke-linejoin:round;stroke-miterlimit:10;" d="M861.809,281.886
					c-3.801,2.775-8.611,4.135-13.302,3.762c-4.691-0.373-9.226-2.477-12.358-5.538c6.258,3.91,14.585,4.258,21.148,0.883"/>
				<path style="fill:none;stroke:#FFFFFF;stroke-linecap:round;stroke-linejoin:round;stroke-miterlimit:10;" d="M846.214,267.566
					c1.309-1.382,2.844-2.866,4.748-2.865c1.52,0.001,2.903,1.008,3.732,2.283c0.829,1.274,1.194,2.789,1.485,4.281"/>
				<path style="fill:none;stroke:#000000;stroke-linecap:round;stroke-linejoin:round;stroke-miterlimit:10;" d="M795.546,288.63
					c-2.443,6.629-7.107,12.181-11.959,17.315c-4.852,5.134-10.026,10.055-13.846,15.997c-3.819,5.943-6.205,13.185-4.768,20.102"/>
				<path style="fill:none;stroke:#FFFFFF;stroke-linecap:round;stroke-linejoin:round;stroke-miterlimit:10;" d="M845.817,292.876
					c8.508,3.333,17.13,6.728,24.457,12.186c7.328,5.458,13.33,13.327,14.514,22.387"/>
				<path style="fill:none;stroke:#FFFFFF;stroke-linecap:round;stroke-linejoin:round;stroke-miterlimit:10;" d="M860.66,301.721
					c8.667,5.015,15.142,13.681,17.494,23.414"/>
				<path style="fill:none;stroke:#FFFFFF;stroke-linecap:round;stroke-linejoin:round;stroke-miterlimit:10;" d="M852.578,270.305
					c0.853,1.334,0.99,3.098,0.355,4.548c-0.636,1.45-2.026,2.544-3.586,2.82"/>
			</g>
			<g>
				<g>
					<path style="fill:#773C45;" d="M679.56,455.762c5.095-0.858,8.902-1.636,14.231-2.508c3.259,2.275,7.117,3.158,10.862,2.786
						c3.744-0.372,7.354-1.998,10.165-5.072c5.981,0.037,11.963,0.073,18.022,1c0.424-5.863-0.212-11.801-1.814-17.664
						c-6.483,0.305-12.967,0.61-18.937,1.418c-7.975-1.636-16.409-0.967-24.025,1.906c-7.89,2.976-14.877,8.307-19.82,15.141
						c-0.356,0.493-0.511,1.124-0.351,1.711c0.321,1.175,1.598,1.264,2.648,1.212c2.343-0.116,4.679-0.383,6.987-0.798l0,0
						C677.975,455.556,678.771,455.895,679.56,455.762z"/>
					<g>
						<path style="fill:none;stroke:#000000;stroke-linecap:round;stroke-linejoin:round;stroke-miterlimit:10;" d="
							M691.791,446.324c-5.682,0.491-11.078,3.636-14.305,8.339"/>
						<path style="fill:none;stroke:#000000;stroke-linecap:round;stroke-linejoin:round;stroke-miterlimit:10;" d="
							M689.866,440.969c-7.807,2.607-14.76,7.71-19.587,14.377"/>
					</g>
				</g>
				<path style="fill:#773C45;" d="M699.394,451.456c-3.062,1.728-5.762,4.095-7.875,6.905c-0.892,1.186-1.688,2.839-0.862,4.072
					c0.492,0.734,1.446,1.049,2.328,0.995c0.882-0.055,1.712-0.421,2.507-0.807c5.541-2.69,10.395-6.581,15.198-10.438
					C707.201,451.961,703.711,451.738,699.394,451.456z"/>
			</g>
			<g>
				<path style="fill:#3F6888;" d="M715.453,454.042c17.993,6.316,37.648,5.056,56.659,3.563
					c10.084-0.792,21.248-2.154,27.854-9.814c4.103-4.758,5.667-11.162,6.677-17.362c2.929-17.991,2.283-36.386,0.475-54.523
					c-1.099-11.029-2.652-22.128-6.583-32.491c-3.931-10.363,2.225-13.905-6.958-19.581c-22.853,6.309-21.078,65.719-21.278,101.937
					c-20.213,1.646-40.346,4.261-60.662,8.352C716.215,439.317,717.755,447.014,715.453,454.042z"/>
				<path style="fill:none;stroke:#000000;stroke-linecap:round;stroke-linejoin:round;stroke-miterlimit:10;" d="M776.679,352.783
					c-3.624,23.88-4.826,48.127-3.312,72.714c-19.993,1.12-40.177,3.122-60.281,8.807"/>
			</g>
			<path style="fill:#773C45;" d="M817.908,383.884c22.64-0.926,40.239-32.866,45-55.019c-43.755-26.805-75.853-8.013-79.678,9.788
				C790.535,359.266,796.813,384.746,817.908,383.884z"/>
			<path style="fill:#773C45;" d="M808.273,293.748c-0.155,8.736-0.31,17.471-0.465,26.207c5.953,3.183,13.175,3.106,18.755-0.072
				c-0.932-8.86-1.419-17.828-1.595-26.397C819.612,291.31,813.335,291.528,808.273,293.748z"/>
			<g>
				<path style="fill:#66A0AF;" d="M902.834,447.596c3.057-77.296-14.465-137.879-66.393-131.535
					c-9.991,17.033-34.248,16.791-40.249,4.98c-49.706,25.686,30.91,126.555,30.91,126.555H902.834z"/>
			</g>
			<path style="fill:#773C45;" d="M805.265,312.827c6.981-0.643,22.163-7.91,27.61-26.905c4.518-15.752,8.05-34.122-12.731-41.413
				c-20.834-7.141-29.947,9.272-35.637,24.64c-3.856,10.414-6.233,26.072,2.084,36.432
				C792.3,312.693,800.278,313.286,805.265,312.827z"/>
			<g>
				<path style="fill:none;stroke:#000000;stroke-linecap:round;stroke-linejoin:round;stroke-miterlimit:10;" d="M781.198,283.313
					c-1.611,18.813,6.357,24.879,12.542,27.709c6.185,2.83,13.988,1.98,20.048-0.959"/>
				<path style="fill:none;stroke:#000000;stroke-linecap:round;stroke-linejoin:round;stroke-miterlimit:10;" d="M797.215,269.113
					c-1.401,4.399-2.802,8.797-4.203,13.196"/>
			</g>
			<g>
				<g>
					<path d="M787.978,273.234c0.357-0.985,0.134-1.969-0.499-2.199c-0.633-0.229-1.435,0.383-1.792,1.368
						c-0.357,0.985-0.134,1.969,0.499,2.199C786.819,274.832,787.621,274.219,787.978,273.234z"/>
					<path d="M808.422,277.686c0.357-0.985,0.134-1.969-0.499-2.199c-0.633-0.229-1.435,0.383-1.792,1.368
						c-0.357,0.985-0.134,1.969,0.499,2.199C807.263,279.283,808.065,278.671,808.422,277.686z"/>
				</g>
				<g>
					<path style="fill:none;stroke:#000000;stroke-linecap:round;stroke-linejoin:round;stroke-miterlimit:10;" d="M786.445,263.377
						c1.04-0.713,2.352-1.018,3.6-0.837c1.248,0.182,2.419,0.848,3.212,1.828"/>
					<path style="fill:none;stroke:#000000;stroke-linecap:round;stroke-linejoin:round;stroke-miterlimit:10;" d="M806.778,268.497
						c1.357-0.649,2.973-0.737,4.393-0.241c1.42,0.496,2.629,1.572,3.287,2.925"/>
				</g>
				<path d="M798.283,286.712c-1.527,2.72-3.498,4.446-4.921,4.309c-1.423-0.137-2.234-2.132-2.025-4.979L798.283,286.712z"/>
				<g>
					<path style="fill:#D04060;" d="M794.237,288.676c0.702-0.582,1.703-0.694,2.596-0.509c0.148,0.031,0.29,0.078,0.434,0.121
						c-1.318,1.786-2.782,2.841-3.905,2.733c-0.07-0.007-0.137-0.022-0.204-0.037C793.29,290.093,793.562,289.236,794.237,288.676z"
						/>
				</g>
			</g>
			<g>
				<path style="fill:#FFFFFF;" d="M843.065,444.956c2.505-0.36,5.01-0.719,7.908-1.134c-4.845-19.584-17.229-83.025-14.424-127.772
					c-0.036,0.004-0.072,0.007-0.108,0.011c-9.88,16.844-33.709,16.792-40.039,5.368c-0.15,0.021-0.3,0.044-0.451,0.064
					C804.479,356.145,833.887,426.572,843.065,444.956z"/>
			</g>
			<g>
				<path style="fill:#773C45;" d="M829.794,283.389c2.223-1.41,4.57-2.802,7.181-3.103c2.61-0.302,5.557,0.787,6.623,3.183
					c0.649,1.458,0.512,3.179-0.063,4.673c-1.123,2.919-3.98,5.126-7.093,5.366c-3.112,0.239-6.302-1.564-7.59-4.362
					C829.061,287.613,829.269,286.08,829.794,283.389z"/>
				<g>
					<path style="fill:none;stroke:#000000;stroke-linecap:round;stroke-linejoin:round;stroke-miterlimit:10;" d="M839.076,284.735
						c-1.536,1.367-3.071,2.734-4.607,4.101"/>
					<path style="fill:none;stroke:#000000;stroke-linecap:round;stroke-linejoin:round;stroke-miterlimit:10;" d="M839.042,289.357
						c-1.269-1.789-2.677-3.478-4.208-5.049"/>
				</g>
				<path style="fill:none;stroke:#000000;stroke-linecap:round;stroke-linejoin:round;stroke-miterlimit:10;" d="M844.029,285.093
					c-0.169,3.726-2.938,7.225-6.469,8.173c-3.53,0.948-7.523-0.735-9.326-3.932"/>
			</g>
			<path d="M813.156,242.969c0.765,7.704,1.911,15.465,4.847,22.628c2.936,7.163,7.835,13.751,14.658,17.424
				c6.338-3.763,9.056-12.062,7.607-19.289c-1.45-7.227-6.406-13.361-12.312-17.771C823.679,242.768,818.31,240.253,813.156,242.969
				z"/>
			<path d="M813.285,242.927c-5.093-1.319-10.714-0.451-15.172,2.343c-4.458,2.794-7.69,7.474-9.074,12.58
				C797.738,254.35,805.827,249.342,813.285,242.927z"/>
			<g>
				<path style="fill:#773C45;" d="M835.246,384.839c-1.836-4.292-3.395-8.703-4.663-13.195c0.034-0.136,0.068-0.271,0.101-0.406
					c1.62-6.488,4.958-12.387,9.525-17.271c2.697-2.885,5.064-6.074,7.035-9.491c0.47-0.814,0.93-1.681,0.782-2.662
					c-0.047-0.313-0.174-0.616-0.378-0.858c-0.658-0.782-1.58-0.579-2.38-0.324c-3.237,1.034-8.376,4.45-10.795,6.836
					c3.026-3.941,7.364-8.922,9.934-12.269c0.373-0.486,0.754-0.986,0.924-1.575c0.17-0.588,0.083-1.293-0.373-1.701
					c-0.646-0.579-1.658-0.332-2.462-0.007c-5.987,2.418-10.68,7.202-14.841,12.139c0.301-1.231,0.611-1.981,0.921-2.73
					c1.13-2.484,2.335-4.952,3.541-7.421c0.212-0.434,0.428-0.884,0.454-1.366c0.025-0.483-0.19-1.012-0.631-1.208
					c-0.528-0.234-1.128,0.074-1.614,0.388c-4.346,2.808-7.874,6.763-10.635,11.14c-2.761,4.376-4.786,9.177-6.517,14.054
					c-0.616-3.26-1.324-5.853-2.367-8.304c-0.336-0.791-0.839-1.669-1.691-1.786c-0.55-0.076-1.102,0.214-1.473,0.627
					c-0.372,0.413-0.593,0.937-0.79,1.456c-0.758,1.997-1.247,4.057-1.549,6.149c-1.257,8.717,0.974,17.57,5.868,24.892
					c1.995,2.986,4.171,5.896,6.511,8.749C823.916,389.065,830.21,388.371,835.246,384.839z"/>
				<g>
					<path style="fill:#773C45;stroke:#000000;stroke-linecap:round;stroke-linejoin:round;stroke-miterlimit:10;" d="
						M809.313,346.715c1.247,0.526,1.877,1.904,2.314,3.185c0.915,2.681,1.492,5.478,1.713,8.303"/>
					<path style="fill:#773C45;stroke:#000000;stroke-linecap:round;stroke-linejoin:round;stroke-miterlimit:10;" d="
						M813.081,356.991c4.843-3.029,11.36-3.148,16.311-0.299"/>
					<path style="fill:#773C45;stroke:#000000;stroke-linecap:round;stroke-linejoin:round;stroke-miterlimit:10;" d="
						M842.791,331.994c-6.926,2.714-12.814,7.988-16.271,14.575"/>
					<path style="fill:#773C45;stroke:#000000;stroke-linecap:round;stroke-linejoin:round;stroke-miterlimit:10;" d="
						M845.69,340.66c-5.277,1.8-10.001,5.191-13.392,9.617"/>
				</g>
			</g>
			<g>
				<path style="fill:#66A0AF;" d="M883.267,430.207c3.098-17.962,2.283-36.386,0.475-54.523
					c-1.099-11.029-1.796-22.494-6.583-32.491c-5.861-12.24-28.247-5.228-29.397,13.308c-1.462,23.552,0.844,40.167-0.102,62.38
					c-3.184-15.344-5.476-24.439-8.592-39.139c-10.009,1.888-20.019,3.775-29.704,6.096c0.125,14.719,1.965,29.424,5.47,43.72
					c1.974,8.049,4.542,16.113,9.288,22.907c4.746,6.794,11.971,12.234,20.204,13.181c6.535,0.751,13.182-1.382,18.682-4.99
					C868.51,457.049,880.499,446.256,883.267,430.207z"/>
				<path style="fill:none;stroke:#000000;stroke-linecap:round;stroke-linejoin:round;stroke-miterlimit:10;" d="M838.421,379.899
					c4.475,17.969,8.951,35.939,13.426,53.908"/>
				<path style="fill:none;stroke:#000000;stroke-linecap:round;stroke-linejoin:round;stroke-miterlimit:10;" d="M845.431,407.582
					c-0.198-18.507-0.397-37.014-0.595-55.52"/>
				<path style="fill:none;stroke:#000000;stroke-linecap:round;stroke-linejoin:round;stroke-miterlimit:10;" d="M834.389,383.216
					c-4.935,5.321-10.754,9.822-17.145,13.261"/>
				<path style="fill:none;stroke:#000000;stroke-linecap:round;stroke-linejoin:round;stroke-miterlimit:10;" d="M834.786,386.895
					c-3.949,8.038-8.935,15.565-14.796,22.336"/>
				<path style="fill:none;stroke:#000000;stroke-linecap:round;stroke-linejoin:round;stroke-miterlimit:10;" d="M888.077,374.646
					c0.15,2.233-3.474,30.774-5.133,45.205c-1.659,14.431-4.958,27.144-15.75,36.867c-4.26,3.838-9.319,6.88-14.872,8.314
					c-6.413,1.656-23.758,2.804-34.264-26.201c-6.295-17.379-9.049-34.209-9.244-52.634c5.886-1.166,11.722-2.582,17.487-4.244"/>
			</g>
		</g>
		<g>
			<path style="fill:#8D8D8D;" d="M117.331,419.154c-13.965,0.24-27.93,0.48-41.895,0.72c-2.482,0.043-4.99,0.083-7.416-0.444
				c-2.426-0.526-4.798-1.68-6.329-3.634c-2.274-2.903-2.297-6.917-2.218-10.604c0.186-8.589,0.371-17.177,0.557-25.766
				c0.077-3.544,0.159-7.129,1.078-10.552c0.92-3.423,2.776-6.723,5.729-8.683c3.051-2.024,6.872-2.404,10.523-2.665
				c10.914-0.779,21.868-1.003,33.091-0.632C113.507,377.408,115.731,398.043,117.331,419.154z"/>
			<g>
				<path style="fill:none;stroke:#000000;stroke-linecap:round;stroke-linejoin:round;stroke-miterlimit:10;" d="M75.864,358.324
					c-4.072,0.36-8.403,1.368-11.115,4.426c-2.083,2.349-2.883,5.548-3.44,8.638c-1.589,8.821-1.756,17.829-1.918,26.791"/>
				<path style="fill:none;stroke:#000000;stroke-linecap:round;stroke-linejoin:round;stroke-miterlimit:10;" d="M68.821,369.629
					c-1.834,12.448-2.297,25.097-1.379,37.645c0.223,3.053,0.763,6.514,3.313,8.207"/>
			</g>
		</g>
		<g>
			<g>
				<path style="fill:#FFFFFF;" d="M325.408,347.809c4.617-0.256,9.234-0.511,13.851-0.767c1.4-0.077,2.873-0.173,4.027-0.746
					c2.048-1.017,2.307-3.078,2.352-4.863c0.238-9.498-0.064-19.002-0.904-28.483c-0.068-0.766-0.161-1.577-0.785-2.2
					c-0.849-0.849-2.421-1.111-3.855-1.295c-11.831-1.518-23.931-1.931-35.916-1.283c-2.753,0.149-5.712,0.419-7.734,1.765
					c-2.274,1.513-2.715,3.934-3.018,6.147c-1.083,7.909-2.168,15.856-1.527,23.789c0.204,2.526,0.789,5.33,3.555,6.903
					c2.178,1.238,5.156,1.383,7.933,1.476C310.15,348.48,316.847,348.283,325.408,347.809z"/>
				<path style="fill:#FFFFFF;" d="M323.933,344.093c-0.817,4.746-1.856,9.454-3.114,14.103c-1.684-4.037-3.368-8.074-5.417-12.313
					C317.994,345.269,320.586,344.655,323.933,344.093z"/>
				<path style="fill:none;stroke:#000000;stroke-linecap:round;stroke-linejoin:round;stroke-miterlimit:10;" d="M303.177,311.499
					c-1.106,0.048-2.207,0.203-3.471,0.633c-1.786,4.7-2.849,9.675-3.138,14.695"/>
				<path style="fill:none;stroke:#000000;stroke-linecap:round;stroke-linejoin:round;stroke-miterlimit:10;" d="M296.294,329.843
					c-0.211,3.191-0.127,6.401,0.25,9.576"/>
				<path style="fill:none;stroke:#000000;stroke-linecap:round;stroke-linejoin:round;stroke-miterlimit:10;" d="M343.305,340.656
					c0.111,1.056-0.237,2.152-0.937,2.949c-0.7,0.798-1.742,1.285-2.803,1.312"/>
			</g>
			<path style="fill:none;stroke:#000000;stroke-linecap:round;stroke-linejoin:round;stroke-miterlimit:10;" d="M334.863,316.505
				c-10.195,0.352-20.39,0.703-30.585,1.054"/>
			<path style="fill:none;stroke:#000000;stroke-linecap:round;stroke-linejoin:round;stroke-miterlimit:10;" d="M334.494,323.197
				c-10.423,0.218-20.846,0.435-31.269,0.653"/>
			<path style="fill:none;stroke:#000000;stroke-linecap:round;stroke-linejoin:round;stroke-miterlimit:10;" d="M334.432,330.684
				c-10.009,0.103-20.018,0.206-30.027,0.308"/>
			<path style="fill:none;stroke:#000000;stroke-linecap:round;stroke-linejoin:round;stroke-miterlimit:10;" d="M334.433,337.937
				c-9.699,0.177-19.398,0.354-29.096,0.531"/>
		</g>
		<g>
			<g>
				<g>
					<path style="fill:#E39033;" d="M331.158,393.836c1.383,1.299,2.676,2.692,3.875,4.149c0.077-1.307,0.215-2.61,0.408-3.898
						c0.444-2.964,1.157-5.871,2.023-8.739c-3.144-6.338-4.521-13.558-3.64-20.584c4.65,2.576,9.341,5.181,13.327,8.699
						c1.375,1.213,2.662,2.553,3.806,3.997c-0.687-5.935-0.237-11.999,1.322-17.767c3.903,2.609,7.27,5.903,10.004,9.644
						c1.065-6.443,3.375-12.681,6.838-18.219c4.87,11.164,4.972,24.265,0.573,35.663c0.495,2.884,0.678,5.82,0.516,8.748
						c1.475-7.316,4.761-14.804,9.694-20.991c1.972,4.092,3.379,8.496,4.11,13.002c4.771-2.107,10.113-2.934,15.281-2.21
						c-2.424,8.199-8.354,14.897-15.751,18.451c-1.415,6.166-4.232,12.012-8.217,16.927c4.92-6.46,11.923-11.688,19.814-13.919
						c-1.958,13.897-12.34,25.654-25.396,29.443l-24.447,2.465C333.314,427.603,327.643,410.103,331.158,393.836z"/>
				</g>
				<path style="fill:#E39033;stroke:#000000;stroke-linecap:round;stroke-linejoin:round;stroke-miterlimit:10;" d="
					M337.511,416.342c-3.977-6.589-10.653-11.493-18.129-13.319c0.62,5.987,2.798,11.949,6.926,16.331
					c4.127,4.382,10.354,6.973,16.283,5.934"/>
				<path style="fill:none;stroke:#000000;stroke-linecap:round;stroke-linejoin:round;stroke-miterlimit:10;" d="M351.209,389.398
					c-4.782,6.657-7.839,14.542-8.796,22.682"/>
				<path style="fill:none;stroke:#000000;stroke-linecap:round;stroke-linejoin:round;stroke-miterlimit:10;" d="M352.623,359.731
					c5.033,2.921,8.885,7.817,10.539,13.397c1.654,5.58,1.093,11.784-1.535,16.976"/>
				<path style="fill:none;stroke:#000000;stroke-linecap:round;stroke-linejoin:round;stroke-miterlimit:10;" d="M355.085,367.097
					c2.622,6.117,4.033,12.751,4.127,19.406"/>
				<path style="fill:none;stroke:#000000;stroke-linecap:round;stroke-linejoin:round;stroke-miterlimit:10;" d="M367.068,419.716
					c1.038-9.57-3.562-19.544-11.515-24.968"/>
				<path style="fill:none;stroke:#000000;stroke-linecap:round;stroke-linejoin:round;stroke-miterlimit:10;" d="M395.066,407.847
					c-4.767,7.444-10.58,14.218-17.215,20.059"/>
				<path style="fill:none;stroke:#000000;stroke-linecap:round;stroke-linejoin:round;stroke-miterlimit:10;" d="M378.659,385.622
					c-0.417,9.347-2.94,18.595-7.329,26.859"/>
				<path style="fill:none;stroke:#000000;stroke-linecap:round;stroke-linejoin:round;stroke-miterlimit:10;" d="M393.484,388.74
					c-3.352,2.217-6.529,4.7-9.49,7.418"/>
				<path style="fill:none;stroke:#000000;stroke-linecap:round;stroke-linejoin:round;stroke-miterlimit:10;" d="M372.899,366.653
					c1.246,10.151-2.632,20.801-10.114,27.774"/>
				<path style="fill:none;stroke:#000000;stroke-linecap:round;stroke-linejoin:round;stroke-miterlimit:10;" d="M369.122,352.086
					c0.534,9.764-0.306,19.603-2.486,29.135"/>
				<path style="fill:none;stroke:#000000;stroke-linecap:round;stroke-linejoin:round;stroke-miterlimit:10;" d="M352.828,380.532
					c-4.463-7.098-11.401-12.606-19.327-15.342"/>
				<path style="fill:none;stroke:#000000;stroke-linecap:round;stroke-linejoin:round;stroke-miterlimit:10;" d="M321.91,406.244
					c3.806,6.698,9.941,12.043,17.098,14.895"/>
				<path style="fill:none;stroke:#000000;stroke-linecap:round;stroke-linejoin:round;stroke-miterlimit:10;" d="M395.544,406.866
					c-1.084,9.098-6.151,17.649-13.61,22.97"/>
				<path style="fill:none;stroke:#000000;stroke-linecap:round;stroke-linejoin:round;stroke-miterlimit:10;" d="M355.99,404.927
					c2.972,6.453,4.217,13.691,3.57,20.766"/>
				<path style="fill:none;stroke:#000000;stroke-linecap:round;stroke-linejoin:round;stroke-miterlimit:10;" d="M345.918,384.897
					c-2.333-5.708-5.838-10.935-10.232-15.262"/>
				<path style="fill:none;stroke:#000000;stroke-linecap:round;stroke-linejoin:round;stroke-miterlimit:10;" d="M337.255,402.576
					c2.021-9.878,8.81-18.667,17.858-23.118c2.352,8.097,1.122,17.166-3.302,24.344"/>
				<path style="fill:none;stroke:#000000;stroke-linecap:round;stroke-linejoin:round;stroke-miterlimit:10;" d="M331.596,394.748
					c5.251,5.362,8.26,12.854,8.178,20.359"/>
				<path style="fill:none;stroke:#000000;stroke-linecap:round;stroke-linejoin:round;stroke-miterlimit:10;" d="M373.039,368.043
					c-0.494-5.787-1.883-11.496-4.207-16.973c-2.361,3.064-4.095,6.61-5.064,10.355"/>
				<path style="fill:none;stroke:#000000;stroke-linecap:round;stroke-linejoin:round;stroke-miterlimit:10;" d="M380.001,374.873
					c5.367,9.756,5.349,22.265-0.046,32.005"/>
				<path style="fill:none;stroke:#000000;stroke-linecap:round;stroke-linejoin:round;stroke-miterlimit:10;" d="M343.133,421.73
					c-0.354-5.402,1.056-10.906,3.964-15.473c6.339,6.467,9.849,16.018,8.987,25.254c3.781-7.415,10.93-13.031,18.924-14.868
					c0.194,4.522-1.239,9.097-3.977,12.701"/>
			</g>
			<g>
				<path style="fill:#3F6888;" d="M338.148,434.893c1.829,14.157,3.659,28.314,5.488,42.472l30.745,0.419
					c2.235-14.017,4.471-28.033,6.706-42.05L338.148,434.893z"/>
				<path style="fill:#66A0AF;" d="M335.95,432.939c15.509,0.347,32.804,0.694,48.716,0.824c-0.959,3.726-1.799,7.483-2.737,11.396
					c-14.754-0.723-29.542-0.74-44.542,0.249C337.013,442.758,336.067,435.632,335.95,432.939z"/>
				<path style="fill:none;stroke:#000000;stroke-linecap:round;stroke-linejoin:round;stroke-miterlimit:10;" d="M382.12,443.236
					c0.951-3.118,1.902-6.235,3.263-8.916c-15.889-1.677-49.433-1.382-49.433-1.382"/>
				<path style="fill:none;stroke:#000000;stroke-linecap:round;stroke-linejoin:round;stroke-miterlimit:10;" d="M374.981,441.179
					c-10.578,0.231-21.156,0.462-31.735,0.694"/>
				<path style="fill:none;stroke:#000000;stroke-linecap:round;stroke-linejoin:round;stroke-miterlimit:10;" d="M340.6,450.164
					c0.776,8.841,1.938,17.647,3.411,26.857c9.775,0.225,19.549,0.451,29.324,0.676"/>
			</g>
		</g>
		<g>
			<g>
				<path style="fill:#D9A086;" d="M238.186,375.681c0,0,9.019-33.033,28.25-44.565c3.86-2.315,7.956-4.663,12.457-4.586
					c0.783,0.013,1.683,0.162,2.083,0.834c0.537,0.902-0.19,2.008-0.878,2.8c-3.214,3.696-6.429,7.392-9.923,11.163
					c1.295-0.544,2.825-0.498,4.085,0.124s2.227,1.808,2.528,3.321c1.535-0.457,3.241,0.185,4.397,1.293
					c1.156,1.108,1.845,2.614,2.359,4.131c0.606,1.786,1.01,3.706,0.633,5.554c-0.377,1.847-1.685,3.599-3.519,4.04
					c-1.85,0.446-3.759-0.49-4.944-1.367c-1.766,5.624-6.491,10.225-12.265,12.153c-2.751,5.206-5.503,10.412-8.253,16.337
					C254.039,384.816,238.186,375.681,238.186,375.681z"/>
				<path style="fill:none;stroke:#000000;stroke-linecap:round;stroke-linejoin:round;stroke-miterlimit:10;" d="M280.303,326.763
					c0.603,0.498,0.709,1.415,0.462,2.157c-0.247,0.742-0.777,1.35-1.293,1.937c-4.724,5.363-9.447,10.727-14.171,16.091"/>
				<path style="fill:none;stroke:#000000;stroke-linecap:round;stroke-linejoin:round;stroke-miterlimit:10;" d="M270.871,341.097
					c5.249-0.529,6.703,4.942,6.345,7.469c-0.359,2.528-1.987,4.843-4.244,6.035"/>
				<path style="fill:none;stroke:#000000;stroke-linecap:round;stroke-linejoin:round;stroke-miterlimit:10;" d="M276.355,344.062
					c5.036,2.171,5.387,7.718,4.238,10.182c-0.771,1.653-2.444,2.915-4.267,2.971"/>
				<path style="fill:none;stroke:#000000;stroke-linecap:round;stroke-linejoin:round;stroke-miterlimit:10;" d="M262.661,348.234
					c4.01,1.593,7.699,3.989,10.785,7.004c0.645,0.63,1.313,1.508,0.982,2.346c-0.319,0.81-1.354,1.017-2.223,1.068
					c-5.011,0.295-10.092-0.677-14.64-2.801"/>
				<path style="fill:none;stroke:#000000;stroke-linecap:round;stroke-linejoin:round;stroke-miterlimit:10;" d="M264.209,358.078
					c1.602,1.381,2.253,3.766,1.574,5.769"/>
				<path style="fill:none;stroke:#000000;stroke-linecap:round;stroke-linejoin:round;stroke-miterlimit:10;" d="M276.326,357.215
					c-1.342,6.7-6.879,11.385-12.555,13.102c-2.435,5.163-5.162,10.188-8.162,15.044"/>
			</g>
			<g>
				<path style="fill:#B41F44;" d="M175.106,385.401c4.83,15.441,9.659,30.882,14.489,46.322c1.927,5.219,3.841,10.934,7.377,15.662
					c3.537,4.729,9.045,8.386,14.946,8.162c4.401-0.167,8.506-2.462,11.702-5.493s5.61-6.775,7.992-10.479
					c11.259-17.643,29.805-54.186,30.452-56.297c-1.414-0.733-13.112-8.788-21.786-14.069c-2.443,3.014-19.721,30.85-22.458,33.27
					c-0.285-23.369-4.154-50.099-16.725-69.443C192.617,350.81,184.585,368.552,175.106,385.401z"/>
				<path style="fill:none;stroke:#000000;stroke-linecap:round;stroke-linejoin:round;stroke-miterlimit:10;" d="M208.343,348.87
					c8.117,24.608,11.48,50.774,9.848,76.634"/>
			</g>
			<path style="fill:#D9A086;" d="M157.488,384.972c-22.64-0.926-40.239-32.866-45-55.019c43.755-26.805,81.65-4.529,88.605,3.985
				C193.789,354.552,178.583,385.835,157.488,384.972z"/>
			<g>
				<path style="fill:#D04060;" d="M72.777,449.504c-9.342-35.214,15.703-109.714,44.553-123.317
					c18.312,13.915,77.763,18.66,83.763,6.849c14.409,58.863-52.585,116.468-52.585,116.468H72.777z"/>
			</g>
			<g>
				<g>
					<path style="fill:#8D8D8D;" d="M183.852,324.594c-5.676,11.974-24.738,44.99-24.738,44.99l27.866,11.084
						c0,0,16.752-20.679,26.487-38.862c-0.235-2.083-0.471-4.166-0.763-6.053C203.224,332.122,193.743,328.492,183.852,324.594z"/>
					<path style="fill:none;stroke:#000000;stroke-linecap:round;stroke-linejoin:round;stroke-miterlimit:10;" d="M194.821,338.445
						c0.234,0.319,0.702,0.393,1.077,0.268c0.526-0.175,0.915-0.719,0.877-1.272s-0.527-1.076-1.082-1.061
						C194.266,336.417,194.552,338.079,194.821,338.445z"/>
					<path style="fill:none;stroke:#000000;stroke-linecap:round;stroke-linejoin:round;stroke-miterlimit:10;" d="M192.974,341.932
						c0.086,0.305,0.437,0.505,0.778,0.533c0.478,0.038,0.964-0.234,1.109-0.646c0.146-0.413-0.08-0.946-0.529-1.109
						C193.177,340.288,192.876,341.583,192.974,341.932z"/>
					<path style="fill:none;stroke:#000000;stroke-linecap:round;stroke-linejoin:round;stroke-miterlimit:10;" d="M186.615,377.009
						c8.96-11.783,17.166-24.139,24.464-36.84c-6.566-2.989-13.133-5.978-19.699-8.966"/>
				</g>
				<g>
					<path style="fill:#D9A086;" d="M136.743,387.187c0.332-1.293,10.266-15.814,11.097-15.9
						c-0.697-5.009,2.155-13.839,6.526-19.182c4.371-5.343,11.557-8.24,18.707-7.297c-0.791,1.587-1.582,3.173-2.152,5.443
						c7.799-1.544,15.597-3.089,23.396-4.633c2.43-0.481,4.895-0.965,7.366-0.791c0.963,0.068,2.07,0.345,2.464,1.226
						c0.344,0.769-0.041,1.707-0.679,2.258c-0.637,0.551-1.472,0.803-2.632,1.749c0.282,2.013-1.227,3.812-2.763,5.143
						c-3.233,2.802-7.074,4.899-11.583,6.505c3.935-1.265,7.871-2.529,11.806-3.794c0.718-0.231,1.787-0.273,1.933,0.466
						c0.074,0.374-0.173,0.728-0.409,1.027c-6.081,7.69-18.493,14.578-27.816,17.602c0.288,1.242-9.696,14.99-9.798,16.474
						C153.062,393.035,144.722,390.612,136.743,387.187z"/>
					<path style="fill:none;stroke:#000000;stroke-linecap:round;stroke-linejoin:round;stroke-miterlimit:10;" d="M204.195,347.107
						c-7.41,6.154-16.31,10.502-25.718,12.566"/>
					<path style="fill:none;stroke:#000000;stroke-linecap:round;stroke-linejoin:round;stroke-miterlimit:10;" d="M201.053,349.873
						c0.072,2.664-2.132,4.796-4.29,6.36c-5.124,3.715-11.018,6.365-17.198,7.731"/>
					<path style="fill:none;stroke:#000000;stroke-linecap:round;stroke-linejoin:round;stroke-miterlimit:10;" d="M190.693,346.471
						c-9.575,0.935-18.996,3.432-27.777,7.361"/>
				</g>
				<g>
					<path style="fill:#D04060;" d="M91.583,434.867c-3.098-17.962-2.283-36.386-0.475-54.523
						c1.099-11.029,1.796-22.494,6.583-32.491c5.861-12.24,28.247-5.228,29.397,13.308c1.462,23.552-0.843,40.167,0.102,62.38
						c3.184-15.344,5.476-24.439,8.592-39.139c10.009,1.888,20.019,3.775,29.704,6.096c-0.125,14.72-1.965,29.424-5.47,43.72
						c-1.974,8.049-4.542,16.113-9.288,22.907c-4.746,6.794-11.971,12.234-20.204,13.181c-6.535,0.751-13.182-1.382-18.682-4.99
						C106.341,461.708,94.351,450.915,91.583,434.867z"/>
					<path style="fill:none;stroke:#000000;stroke-linecap:round;stroke-linejoin:round;stroke-miterlimit:10;" d="M136.43,384.558
						c-4.475,17.969-8.951,35.939-13.426,53.908"/>
					<path style="fill:none;stroke:#000000;stroke-linecap:round;stroke-linejoin:round;stroke-miterlimit:10;" d="M129.419,412.241
						c0.198-18.507,0.397-37.014,0.595-55.52"/>
					<path style="fill:none;stroke:#000000;stroke-linecap:round;stroke-linejoin:round;stroke-miterlimit:10;" d="M86.773,379.306
						c-0.15,2.233,3.474,30.774,5.133,45.205c1.659,14.431,4.958,27.144,15.75,36.867c4.26,3.838,9.319,6.88,14.872,8.314
						c6.413,1.656,23.757,2.804,34.264-26.201c6.295-17.379,9.049-34.209,9.244-52.634c-5.886-1.166-11.722-2.582-17.487-4.243"/>
					<path style="fill:none;stroke:#000000;stroke-linecap:round;stroke-linejoin:round;stroke-miterlimit:10;" d="M140.462,387.875
						c4.935,5.321,10.754,9.822,17.145,13.26"/>
					<path style="fill:none;stroke:#000000;stroke-linecap:round;stroke-linejoin:round;stroke-miterlimit:10;" d="M140.064,391.555
						c3.949,8.038,8.935,15.565,14.796,22.336"/>
				</g>
			</g>
			<g>
				<g>
					<path style="fill:#E39033;" d="M109.948,263.113c-1.783-5.553-2.523-11.486-1.745-17.267
						c0.777-5.781,3.116-11.401,6.981-15.769c3.866-4.368,9.293-7.416,15.091-8.052c5.798-0.636,11.904,1.251,16.074,5.329
						c4.17,4.078,6.199,10.342,4.711,14.984c-3.208,11.89-10.12,22.752-19.331,30.414c-2.486,5.139-5.126,10.47-9.655,13.945
						c-0.588,0.451-1.221,0.875-1.94,1.056c-0.719,0.181-1.545,0.082-2.094-0.416c-0.717-0.649-0.775-1.743-0.703-2.707
						c0.201-2.672,1.021-5.295,2.213-7.971c-3.409,4.14-7.021,8.435-11.977,10.484c-1.669,0.69-3.665,1.074-5.217,0.152
						c-1.209-0.719-1.897-2.13-1.995-3.533c-0.098-1.403,0.328-2.797,0.936-4.066c1.853-3.865,5.297-6.686,8.606-9.752
						c-1.757,1.241-4.014,1.754-6.135,1.393c-1.067-0.181-2.208-0.679-2.605-1.685c-0.324-0.82-0.048-1.785,0.502-2.474
						c0.55-0.689,1.334-1.148,2.127-1.535C105.701,264.713,107.769,264.11,109.948,263.113z"/>
					<path style="fill:#E39033;" d="M158.411,308.66c-7.924-1.394-16.034-5.99-21.454-11.936
						c-12.099-13.272-12.666-30.733-11.271-38.102c1.327-7.011,6.526-13.114,13.118-15.846c6.591-2.732,14.512-1.991,20.213,1.849
						c6.487,7.131,8.943,17.034,10.036,26.612c0.778,6.816,0.975,13.786-0.556,20.473
						C166.965,298.397,163.575,304.822,158.411,308.66z"/>
					<path style="fill:none;stroke:#000000;stroke-linecap:round;stroke-linejoin:round;stroke-miterlimit:10;" d="M146.93,241.103
						c-6.28-0.552-12.588,2.603-16.521,7.53c-9.879,12.373-7.07,41.737,14.351,54.062"/>
					<path style="fill:none;stroke:#E39033;stroke-linecap:round;stroke-linejoin:round;stroke-miterlimit:10;" d="M149.854,239.385
						c0.622-3.287-0.346-6.758-2.217-9.525c-1.871-2.767-4.581-4.878-7.517-6.452c-4.326-2.32-9.326-3.553-14.18-2.865
						c-6.125,0.867-11.616,4.8-14.999,10.01c-3.383,5.209-4.763,11.582-4.522,17.8c0.241,6.218,2.032,12.3,4.567,17.976"/>
					<path style="fill:none;stroke:#000000;stroke-linecap:round;stroke-linejoin:round;stroke-miterlimit:10;" d="M128.523,228.613
						c-5.968,0.712-10.811,5.665-12.841,11.322c-2.03,5.657-1.681,11.894-0.64,17.814"/>
					<path style="fill:none;stroke:#000000;stroke-linecap:round;stroke-linejoin:round;stroke-miterlimit:10;" d="M136.743,232.56
						c-2.976-1.007-6.34-0.811-9.179,0.534c-2.839,1.345-5.121,3.825-6.227,6.765"/>
				</g>
				<path style="fill:#D9A086;" d="M167.124,294.836c0.155,8.736,0.31,17.471,0.465,26.206c-5.953,3.183-13.175,3.106-18.755-0.072
					c0.932-8.86,1.418-17.828,1.594-26.397C155.785,292.398,162.062,292.617,167.124,294.836z"/>
				<path style="fill:#D9A086;" d="M170.132,313.915c-6.981-0.643-22.162-7.91-27.61-26.905
					c-4.518-15.752-8.05-34.122,12.731-41.413c20.834-7.141,29.948,9.272,35.637,24.64c3.855,10.414,6.233,26.072-2.084,36.432
					C183.097,313.781,175.119,314.375,170.132,313.915z"/>
				<g>
					<path style="fill:none;stroke:#000000;stroke-linecap:round;stroke-linejoin:round;stroke-miterlimit:10;" d="M194.199,284.402
						c1.611,18.813-6.357,24.879-12.542,27.709c-6.185,2.83-13.988,1.98-20.048-0.959"/>
					<path style="fill:none;stroke:#000000;stroke-linecap:round;stroke-linejoin:round;stroke-miterlimit:10;" d="M178.182,270.201
						c1.401,4.399,2.802,8.797,4.203,13.196"/>
				</g>
				<path style="fill:none;stroke:#000000;stroke-linecap:round;stroke-linejoin:round;stroke-miterlimit:10;" d="M131.612,285.956
					c0.135,3.738,2.952,7.221,6.579,8.135c3.627,0.914,7.758-0.817,9.649-4.044"/>
				<g>
					<g>
						<path style="fill:#3F6888;" d="M187.418,274.323c-0.357-0.985-0.134-1.969,0.499-2.199c0.633-0.229,1.435,0.383,1.792,1.368
							c0.357,0.985,0.134,1.969-0.499,2.199C188.578,275.921,187.776,275.308,187.418,274.323z"/>
						<path style="fill:#3F6888;" d="M166.975,278.774c-0.357-0.985-0.134-1.969,0.499-2.199c0.633-0.229,1.435,0.383,1.792,1.368
							c0.357,0.985,0.134,1.969-0.499,2.199C168.134,280.372,167.332,279.759,166.975,278.774z"/>
					</g>
					<g>
						<path style="fill:none;stroke:#000000;stroke-linecap:round;stroke-linejoin:round;stroke-miterlimit:10;" d="
							M188.952,264.465c-1.04-0.713-2.352-1.018-3.6-0.837c-1.248,0.182-2.419,0.848-3.212,1.828"/>
						<path style="fill:none;stroke:#000000;stroke-linecap:round;stroke-linejoin:round;stroke-miterlimit:10;" d="
							M168.619,269.586c-1.357-0.649-2.973-0.737-4.393-0.241s-2.629,1.572-3.287,2.925"/>
					</g>
					<path d="M177.114,287.801c1.527,2.72,3.498,4.446,4.921,4.309c1.423-0.137,2.234-2.132,2.025-4.979L177.114,287.801z"/>
					<g>
						<path style="fill:#D04060;" d="M181.159,289.764c-0.702-0.582-1.703-0.694-2.596-0.509c-0.147,0.031-0.29,0.078-0.433,0.121
							c1.318,1.786,2.782,2.841,3.905,2.733c0.07-0.007,0.137-0.022,0.204-0.037C182.106,291.181,181.835,290.324,181.159,289.764z"
							/>
					</g>
				</g>
				<g>
					<path style="fill:#E39033;" d="M159.016,244.625c0,0,1.553-3.932,2.822-5.869c1.268-1.937,3.159-3.578,5.429-4.037
						c2.536-0.513,5.131,0.498,7.381,1.774c5.485,3.112,10.011,8.043,12.186,13.962c0.795,2.164,1.21,4.788-0.197,6.615
						c-0.802,1.042-2.087,1.633-3.388,1.83c-1.301,0.197-2.628,0.038-3.925-0.184c-4.86-0.833-9.564-2.567-14.157-5.048
						c0.6,2.71,1.127,5.668-0.092,8.162c-0.398,0.814-1.039,1.586-1.921,1.795c-0.963,0.228-1.944-0.266-2.754-0.833
						c-2.446-1.712-4.288-4.271-5.485-7.859c1.451,7.99,0.212,16.444-3.471,23.681c-1.309,2.571-3.16,5.177-5.885,6.208
						c-5.502-2.241-9.971-6.892-11.99-12.48c-2.019-5.587-1.555-12.021,1.245-17.261c2.799-5.24,7.89-9.202,13.657-10.63
						C152.08,243.558,159.016,244.625,159.016,244.625z"/>
					<path style="fill:none;stroke:#000000;stroke-linecap:round;stroke-linejoin:round;stroke-miterlimit:10;" d="M171.903,238.526
						c5.358,2.03,9.444,7.094,10.297,12.759"/>
					<path style="fill:none;stroke:#000000;stroke-linecap:round;stroke-linejoin:round;stroke-miterlimit:10;" d="M173.806,242.688
						c3.238,3.573,4.345,8.945,2.782,13.507"/>
					<path style="fill:none;stroke:#000000;stroke-linecap:round;stroke-linejoin:round;stroke-miterlimit:10;" d="M155.115,250.539
						c-3.791,3.337-5.703,8.683-4.887,13.668"/>
					<path style="fill:none;stroke:#000000;stroke-linecap:round;stroke-linejoin:round;stroke-miterlimit:10;" d="M153.936,247.476
						c-4.511,1.848-7.731,6.493-7.879,11.366"/>
				</g>
				<g>
					<path style="fill:#D9A086;" d="M145.603,284.477c-2.223-1.41-4.57-2.802-7.181-3.103c-2.61-0.301-5.557,0.787-6.624,3.183
						c-0.649,1.458-0.512,3.179,0.063,4.674c1.123,2.919,3.98,5.126,7.093,5.366c3.113,0.239,6.302-1.564,7.59-4.362
						C146.336,288.702,146.128,287.168,145.603,284.477z"/>
					<g>
						<path style="fill:none;stroke:#000000;stroke-linecap:round;stroke-linejoin:round;stroke-miterlimit:10;" d="
							M136.321,285.824c1.536,1.367,3.071,2.734,4.607,4.101"/>
						<path style="fill:none;stroke:#000000;stroke-linecap:round;stroke-linejoin:round;stroke-miterlimit:10;" d="
							M136.354,290.445c1.269-1.789,2.677-3.478,4.208-5.049"/>
					</g>
				</g>
			</g>
		</g>
		<g>
			<path style="fill:none;stroke:#000000;stroke-linecap:round;stroke-linejoin:round;stroke-miterlimit:10;" d="M199.902,401.795"
				/>
			<path style="fill:#C1C1C1;" d="M319.903,448.572c8.536,13.933,18.037,27.275,28.411,39.898
				c-42.65,0.564-85.039,1.602-127.427,2.64c-15.602-4.064-30.819-7.91-45.714-12.748c12.151-28.525,25.725-54.914,40.261-80.762
				c43.052-1.786,83.649-2.544,124.246-3.303c1.602,1.665,3.155,3.358,4.242,5.336C337.47,416.746,329.506,433.288,319.903,448.572z
				"/>
			<path style="fill:none;stroke:#000000;stroke-linecap:round;stroke-linejoin:round;stroke-miterlimit:10;" d="M177.241,478.782
				c15.522,4.571,28.666,8.649,44.188,13.22"/>
			<path style="fill:none;stroke:#000000;stroke-linecap:round;stroke-linejoin:round;stroke-miterlimit:10;" d="M218.3,476.073
				c-11.384,0.329-22.767,0.659-34.151,0.988"/>
			<path style="fill:none;stroke:#000000;stroke-linecap:round;stroke-linejoin:round;stroke-miterlimit:10;" d="M338.78,399.747
				c-40.426,0.997-80.851,1.995-120.515,3.742c-11.248,20.95-21.988,42.174-32.206,63.645"/>
			<path style="fill:#8D8D8D;" d="M332.93,409.156c-0.971,2.412-1.942,4.823-3.275,6.911c-6.749,0.254-13.499,0.508-20.88,0.658
				c0.849-2.795,1.697-5.591,2.832-8.59C318.508,407.792,325.432,407.943,332.93,409.156z"/>
			<path style="fill:none;stroke:#000000;stroke-linecap:round;stroke-linejoin:round;stroke-miterlimit:10;" d="M327.32,413.471
				c-0.686,0.538-1.529,1.107-2.361,0.847c-0.599-0.187-1.011-0.811-1.011-1.438s0.377-1.225,0.91-1.554
				c0.556-0.343,1.303-0.398,1.86-0.057C327.274,411.61,327.562,412.372,327.32,413.471z"/>
			<path style="fill:none;stroke:#000000;stroke-linecap:round;stroke-linejoin:round;stroke-miterlimit:10;" d="M318.611,412.754
				c-0.458,0.742-1.175,1.38-2.039,1.501c-0.864,0.121-1.839-0.425-1.983-1.285c-0.116-0.689,0.31-1.376,0.875-1.788
				c0.593-0.432,1.388-0.629,2.081-0.39C318.239,411.032,319.138,411.9,318.611,412.754z"/>
			<path style="fill:#8D8D8D;" d="M216.922,467.918c-8.913-0.219-17.827-0.437-26.74-0.656c1.763-5.746,3.919-10.857,6.135-16.216
				C203.197,456.731,210.078,462.416,216.922,467.918z"/>
			<path style="fill:none;stroke:#000000;stroke-linecap:round;stroke-linejoin:round;stroke-miterlimit:10;" d="M331.724,397.257
				c-2.567-0.795-5.361-0.839-7.951-0.125"/>
			<path style="fill:none;stroke:#000000;stroke-linecap:round;stroke-linejoin:round;stroke-miterlimit:10;" d="M318.57,397.195
				c-3.192-0.465-6.476-0.28-9.596,0.538"/>
			<path style="fill:#8D8D8D;" d="M196.093,450.544c41.252-0.23,82.024-1.726,123.81-1.972c10.703,12.176,20.723,26.64,29.051,41.38
				c-42.456,0.801-84.912,1.602-126.992,2.915C213.291,478.793,204.622,464.72,196.093,450.544z"/>
			<path style="fill:none;stroke:#000000;stroke-linecap:round;stroke-linejoin:round;stroke-miterlimit:10;" d="M249.507,449.732
				c23.62-0.231,47.24-0.463,70.785-0.683c9.517,11.971,20.564,26.427,28.022,39.779"/>
		</g>
	</g>
</g>
</svg>
