<svg xmlns="http://www.w3.org/2000/svg" xmlns:xlink="http://www.w3.org/1999/xlink" version="1.1" x="0px" y="0px" viewBox="0 0 50 62.5" enable-background="new 0 0 50 50" xml:space="preserve"><g><path d="M37.8,47.3c0,0.7,0.6,1.3,1.3,1.3h4.6c0.7,0,1.3-0.6,1.3-1.3V46h-7.2V47.3z"/><path d="M4.9,47.3c0,0.7,0.6,1.3,1.3,1.3h4.6c0.7,0,1.3-0.6,1.3-1.3V46H4.9V47.3z"/><rect x="4.5" y="9.3" width="2.6" height="21.1"/><rect x="42.9" y="9.3" width="2.6" height="21.1"/><path d="M11.6,15.2c7.3-7.5,19.3-7.6,26.8-0.3c0.4,0.4,1.1,0.4,1.5,0c0.4-0.4,0.4-1.1,0-1.5c-8.3-8.1-21.6-7.9-29.7,0.4   c-0.4,0.4-0.4,1.1,0,1.5C10.5,15.7,11.2,15.7,11.6,15.2z"/><path d="M36.3,18.6c0.4-0.4,0.4-1.1,0-1.5c-6.3-6.1-16.4-6-22.5,0.3c-0.4,0.4-0.4,1.1,0,1.5c0.4,0.4,1.1,0.4,1.5,0   c5.3-5.5,14.1-5.6,19.6-0.2C35.2,19,35.9,19,36.3,18.6z"/><path d="M32.7,22.2c0.4-0.4,0.4-1.1,0-1.5c-4.3-4.2-11.1-4.1-15.3,0.2c-0.4,0.4-0.4,1.1,0,1.5c0.4,0.4,1.1,0.4,1.5,0   c3.4-3.4,8.9-3.5,12.3-0.1C31.7,22.6,32.3,22.6,32.7,22.2z"/><circle cx="25" cy="25.3" r="2.8"/><path d="M5.8,7.5c1.6,0,3-1.3,3-3c0-1.7-1.4-3-3-3c-1.7,0-3,1.4-3,3C2.7,6.1,4.1,7.5,5.8,7.5z"/><path d="M44.2,7.5c1.6,0,3-1.3,3-3c0-1.7-1.4-3-3-3c-1.7,0-3,1.4-3,3C41.2,6.1,42.6,7.5,44.2,7.5z"/><path d="M47,32.4c-1,0-44.6,0-43.9,0c-1.1,0-2,0.9-2,2V42c0,1.1,0.9,2,2,2c3.7,0,44.6,0,43.9,0c1.1,0,2-0.9,2-2v-7.5   C49,33.4,48.1,32.4,47,32.4z M42.4,37c0.7,0,1.2,0.5,1.2,1.2s-0.6,1.2-1.2,1.2c-0.7,0-1.2-0.5-1.2-1.2S41.7,37,42.4,37z M4,38.2   c0-1.9,1.5-3.4,3.4-3.4c1.9,0,3.4,1.5,3.4,3.4s-1.5,3.4-3.4,3.4C5.6,41.6,4,40.1,4,38.2z M31,39.5c-0.7,0-1.2-0.5-1.2-1.2   S30.3,37,31,37c0.7,0,1.2,0.5,1.2,1.2S31.7,39.5,31,39.5z M34.8,39.5c-0.7,0-1.2-0.5-1.2-1.2s0.6-1.2,1.2-1.2   c0.7,0,1.3,0.5,1.3,1.2S35.5,39.5,34.8,39.5z M37.3,38.2c0-0.7,0.6-1.2,1.3-1.2c0.7,0,1.2,0.5,1.2,1.2s-0.6,1.2-1.2,1.2   C37.9,39.5,37.3,38.9,37.3,38.2z M46.2,39.5c-0.7,0-1.2-0.5-1.2-1.2s0.5-1.2,1.2-1.2s1.2,0.5,1.2,1.2S46.9,39.5,46.2,39.5z"/></g><text x="0" y="65" fill="#000000" font-size="5px" font-weight="bold" font-family="'Helvetica Neue', Helvetica, Arial-Unicode, Arial, Sans-serif">Created by Vectors Market</text><text x="0" y="70" fill="#000000" font-size="5px" font-weight="bold" font-family="'Helvetica Neue', Helvetica, Arial-Unicode, Arial, Sans-serif">from the Noun Project</text></svg>